<svg version="1.2" xmlns="http://www.w3.org/2000/svg" viewBox="0 -5.684341886080802e-14 500 500.00000000000006" width="500" height="501">
	<title>11461897</title>
	<style>
		.s0 { fill: #a0d2f4 } 
		.s1 { fill: #421b36 } 
		.s2 { fill: #8380ff } 
		.s3 { fill: #ffae7a } 
		.s4 { fill: #ffffff } 
	</style>
	<g id="Character">
		<g id="&lt;Group&gt;">
			<g id="&lt;Group&gt;">
				<path id="&lt;Path&gt;" class="s0" d="m339 226.58c0 0 16 9.14 17 15.1 1 5.96-23.19 108.21-29.52 112.18-6.34 3.98-123.72-5.2-128.19-10.48-5.57-6.57 27.88-117.11 30.35-116.87 1.44-1.39 104.59-4.46 110.36 0.07z"/>
			</g>
			<g id="&lt;Group&gt;">
				<g id="&lt;Group&gt;">
					<path id="&lt;Path&gt;" class="s1" d="m199.84 296.08c0 0 9.43 142.06 8.41 145.15-1.56 4.71-20.74 3.87-21.17 2.09l-8.06-142.74h-54.13c0 0-25.39 155.51-25.68 156.77-1.04 4.51-21.51 2.84-21.52 0l24.64-161.27z"/>
				</g>
				<g id="&lt;Group&gt;">
					<g id="&lt;Group&gt;">
						<path id="&lt;Path&gt;" class="s2" d="m210.32 375.67q-2.52-12.7-5.03-25.4-3.99-20.08-7.97-40.16-0.92-4.61-1.83-9.22 0.3 0.23 0.59 0.45-11.92 0-23.85 0-19.04 0-38.07 0-4.39 0-8.79 0c-0.79 0-0.79-1.23 0-1.23q11.93 0 23.86 0 19.03 0 38.06 0 4.4 0 8.79 0c0.26 0 0.55 0.19 0.6 0.45q2.52 12.7 5.04 25.4 3.98 20.09 7.96 40.17 0.92 4.61 1.83 9.22c0.15 0.77-1.03 1.1-1.19 0.32z"/>
					</g>
				</g>
				<g id="&lt;Group&gt;">
					<path id="&lt;Path&gt;" class="s2" d="m93.45 456.15l26.38-160.79-0.97-0.16-26.38 160.79z"/>
				</g>
			</g>
			<g id="&lt;Group&gt;">
				<path id="&lt;Path&gt;" class="s0" d="m328.12 382.15v-31.38c0 0-3.12-9.94-15.96-10.33-12.84-0.4-171.08 0.39-175.59 3.97-4.51 3.58 0 30.59 0 30.59z"/>
			</g>
			<g id="&lt;Group&gt;">
				<g id="&lt;Group&gt;">
					<path id="&lt;Path&gt;" class="s1" d="m327.29 361.25c0.06-5.23 0.24-11.61-2.64-16.25-0.77-1.24-1.88-2.45-3.15-3.18-0.95-0.55-2.17-0.69-3.24-0.86-4.01-0.63-8.11-0.75-12.16-0.88q-6.74-0.2-13.49-0.17-3.72 0-7.45 0.08c-0.79 0.01-0.79-1.22 0-1.24q10.15-0.21 20.29 0.08c4.27 0.12 8.57 0.27 12.8 0.89 1.21 0.18 2.55 0.35 3.66 0.92 1.27 0.65 2.4 1.79 3.24 2.92 1.38 1.83 2.13 4.06 2.58 6.29 0.76 3.74 0.83 7.6 0.8 11.4-0.01 0.79-1.24 0.79-1.24 0z"/>
				</g>
			</g>
			<g id="&lt;Group&gt;">
				<path id="&lt;Path&gt;" class="s1" d="m342.26 360.44l1.99 25.03h-221.6l1.33-25.03z"/>
			</g>
			<g id="&lt;Group&gt;">
				<g id="&lt;Group&gt;">
					<path id="&lt;Path&gt;" class="s1" d="m338.9 226.74c-5.08 14.88-9.32 30.03-13.35 45.22-4.07 15.3-7.87 30.67-11.86 45.99-1.9 7.3-3.84 14.6-5.96 21.84-0.22 0.76-1.41 0.43-1.18-0.33 3.98-13.63 7.4-27.42 10.91-41.17 4.02-15.75 8.05-31.5 12.54-47.13 2.39-8.3 4.92-16.57 7.71-24.74 0.26-0.75 1.44-0.43 1.19 0.32z"/>
				</g>
			</g>
			<g id="&lt;Group&gt;">
				<path id="&lt;Path&gt;" class="s3" d="m218.37 237.08c0 0-17.79 26.2-17.8 30.37-0.02 10.34 7.79 12.68 14.73 10.34 5.87-1.98 20.56-14.4 22.05-18.91 1.49-4.51-0.25-25.83-0.25-25.83l-17.33 4.03"/>
			</g>
			<g id="&lt;Group&gt;">
				<g id="&lt;Group&gt;">
					<path id="&lt;Path&gt;" class="s1" d="m223.96 252.2q-3.33 8.85-6.65 17.7c-0.28 0.74-1.47 0.42-1.19-0.32q3.33-8.85 6.65-17.7c0.28-0.74 1.47-0.42 1.19 0.32z"/>
				</g>
			</g>
			<g id="&lt;Group&gt;">
				<g id="&lt;Group&gt;">
					<g id="&lt;Group&gt;">
						<path id="&lt;Path&gt;" class="s0" d="m72.42 380.67c5.7 0.59 13.38-0.39 18.72-3.31 5.34-2.91 16.28-20.38 18.39-23.5l16.75 18.85c0 0-20.07 13.73-23.66 19.07-3.6 5.34-9.99 20.64-14.03 22.25-4.04 1.62-28.46-13.25-36.97-19.6-13.21-9.86-12.93-18.97-11.61-20.62 0.92-1.12 26.71 6.27 32.41 6.86z"/>
					</g>
				</g>
			</g>
			<g id="&lt;Group&gt;">
				<g id="&lt;Group&gt;">
					<g id="&lt;Group&gt;">
						<path id="&lt;Path&gt;" class="s0" d="m143.4 453.13c4.85-3.04 10.3-8.54 12.72-14.12 2.42-5.59 0.3-26.08 0.04-29.84l24.8 4.55c0 0-7.37 23.17-6.92 29.6 0.45 6.42 4.83 22.41 2.64 26.17-2.2 3.75-30.6 7.06-41.21 7.28-16.49 0.36-21.87-7-21.84-9.11 0.03-1.45 24.91-11.49 29.77-14.53z"/>
					</g>
				</g>
			</g>
			<g id="&lt;Group&gt;">
				<path id="&lt;Path&gt;" class="s2" d="m251.6 344.37l-54.31 1.34c0 0 5.09 81.07-10.63 89.29-15.71 8.23-42.21 2.79-42.88-4.86-0.68-7.65 7.76-94.04 7.76-94.04 0 0 37.44-42.8 100.06 8.27z"/>
			</g>
			<g id="&lt;Group&gt;" style="opacity: .3">
				<path id="&lt;Compound Path&gt;" class="s1" d="m175.85 389.36c0.21 0.69-0.76 1.51-1.03 0.61q0 0 0 0 0-0.01 0.01-0.01-0.01 0-0.02 0c-0.83-0.94-0.79 0.29 0 0q0 0 0.01 0.01c-0.78 0.64-1 0.57-1.74-0.52 1.04-2.26 1.5-0.58 2.77-0.09zm-1.02 0.6q-0.01 0-0.01 0.01-0.01-0.01-0.01-0.01 0.01 0 0.02 0zm-3.27-33.31c0.92 0.14 1.01 0.82 1.26 1.52q0.12 0 0.23 0c-0.06 1.36-2.52 1.51-2.6 0q-0.12 0-0.23 0c-0.08-1.02 0.69-1.24 1.34-1.52zm6.93 1.52c0.05 1.55-2.71 2.19-2.13 0q-0.12 0-0.23 0c-0.12-1.54 2.67-1.77 2.36 0zm10.4-35.22c1.36-0.15 0.82 1.1 0.56 1.89q-0.28 0-0.56 0c-0.65 0.13-1.42 0.13-1.64-0.64 0.35-0.71 0.97-1.01 1.64-1.25zm0 16.78q0 0.12 0 0.24c0.61-0.23 0.85 0.64 1.13 0.96-0.18 0.67-0.54 0.96-1.13 0.93q0-0.12 0-0.24c-1.81-0.05-1.78-1.68 0-1.89zm-39 18.44q0.12 0 0.23 0c-0.14 0.5-0.3 0.9-0.7 1.27q-0.05-0.03-0.1-0.05 0.11-1.1 0.21-2.16c0.25 0.26 0.42 0.62 0.36 0.94zm39-12.53q0 0.12 0 0.24c1.3-0.66 1.08 2.13 0 2.13q0-0.48 0-0.95c-0.39 0.08-0.77 0.15-1.14-0.08 0.14-1.01 0.19-1.08 1.14-1.34zm-19.78-20.01c1 0.57 1.36 1.23 0.78 2.34-3.35 0.71-2.48-3.16-0.78-2.34zm3.96 30.24c0-0.46 0-0.84 0-1.26 0.56-0.33 1.02-0.6 1.46-0.86 1.08 0.64 1.1 0.67 1.04 1.72q-0.62 0.53-1.26 1.07-0.64-0.35-1.24-0.67zm-0.71-19.43c-0.61 0.05-1.27 0.2-1.95-0.41-0.18-3.1 3.72-1.94 1.95 0.41zm-4.96-4.3c0.48-0.3 0.97-0.6 1.4-0.86 0.6 0.18 1.04 0.39 1.37 0.94-0.42 2.38-2.11 1.93-2.77-0.08zm5.46-2.14c-0.45 0.19-0.66 0.98-1.14 1.01-0.69-0.14-1.22-0.67-1.53-1.3 0.67-1.5 2.89-1.66 2.67 0.29zm-8.61 25.65c-0.34 0.91-2.03 0.9-2.32-0.07 0.07-2.44 2.5-2.27 2.32 0.07zm-0.45-27.76q-0.55 0.15-1.09 0.29-0.21-0.28-0.41-0.54 0.95-0.58 1.99-1.15 0.06 0.26 0.11 0.47-0.3 0.47-0.6 0.93zm0.74 1.73c0.66-2.15 3.58-0.74 2.14 1.02-1.4 0.24-1.57 0.16-2.14-1.02zm11.02-7.65q-0.56 0.28-1.15 0.59-0.18-0.16-0.35-0.3 0.72-0.24 1.47-0.47 0.02 0.09 0.03 0.18zm0.59 13.91c0-0.5 0-0.92 0-1.36 2.12-1.2 2.99 0.81 1.39 2.21q-0.77-0.47-1.39-0.85zm-16.91-1.06c1.39-2.09 3.43 1.34 1.09 1.88-0.87-0.28-1.56-1.1-1.09-1.88zm6.15 1.61q-0.43-0.75-0.83-1.45c0.42-0.5 0.8-0.94 1.49-1.01q0.51 0.43 1.03 0.85c0.31 1.49-0.48 1.35-1.69 1.61zm-14.16 6.7c0.52 0.01 1-0.08 1.42-0.43 1.74 0.76-0.61 3.45-1.9 1.64q0.05-0.57 0.1-1.1 0.14-0.1 0.38-0.11zm15.06-1.52c-0.12 0.24-0.23 0.47-0.39 0.79-2.34-0.54-1.03-2.93 0.69-2.44 0.35 0.67 1.02 1.63-0.3 1.65zm15.14-14.71c-0.23 1.37-2.44 1.49-2.45-0.05 0.21-1.71 1.99-1.34 2.45 0.05zm-7.07 18.06q-0.47-0.25-1.08-0.57c-0.13-1.79 1.93-2.67 2.44-0.54-0.44 0.32-0.59 1.01-1.36 1.11zm1.16-17.7c-0.76 1.9-2.62 0.21-1.8-1.26 1.09-0.71 2.33-0.14 1.8 1.26zm10.75 21.11c0.89 0.25 0.14 1.43 0.09 2.05-0.69 0.76-1.46-0.28-1.95-0.8 0.09-1.14 0.81-1.5 1.86-1.25zm-23.45-11.57c1.33 0.55 1.45 0.78 1.08 2.24-0.52-0.05-0.98 0.43-1.56 0.22-0.81-0.83-0.4-1.69 0.48-2.46zm-1.37-6.95c-0.53 1.03-1.9 1.39-2.5 0.2q-0.03-0.12-0.02-0.23 0.9-0.63 1.91-1.28c0.38 0.19 0.49 0.91 0.61 1.31zm6.69 26.44c-1.03-0.24-0.24-1.58 0.02-2.2 0.73-1 1.22 0.57 1.69 1.01 0.57 1.07-0.94 1.06-1.71 1.19zm9.35-10.75c0.16 0.58 0.84 0.88 0.99 1.63q-0.75 0.46-1.44 0.88c-0.71-0.38-0.71-0.38-1.13-1.47 0.36-0.48 0.75-0.94 1.58-1.04zm-20.03 2.82c1.33 1.09 1.36 1.75 0.17 2.5-1.17-0.72-1.17-0.72-1.58-1.45 0.35-0.46 0.74-0.87 1.41-1.05zm19.94-17.56q-0.6-0.36-1.29-0.77c0.43-1.66 0.61-1.24 1.9-1.41 1.2 0.84 0.56 1.77-0.61 2.18zm-2.13 0.8q0.19 0.54 0.37 1.04c-0.4 1.57-1.85 1.05-2.53 0.02 0.74-1.18 0.74-1.18 2.16-1.06zm-22.33 6.63c-0.5 0.71-1.23 1.31-1.72 1.22q0.14-1.46 0.22-2.3c0.63-0.04 1.43 0.39 1.5 1.08zm11.15-6.03c0.79 1.78-1.83 2.21-2.13 0.3 0.24-1.18 1.54-1.25 2.13-0.3zm3.89 12.72c-0.19-0.48-0.35-0.87-0.5-1.26 2.12-2.37 3.97 1.57 0.5 1.26zm-5.46 5.66c-0.15-0.44-0.44-0.86-0.76-1.2 0.4-0.56 0.85-0.91 1.63-1.08 1.33 0.95 0.82 2.69-0.87 2.28zm18.71-29.12c-0.94 1.05-2.47 0.85-2.27-0.58q1.02-0.24 2.08-0.45c0.18 0.3 0.34 0.6 0.19 1.03zm-10.75 18.67c1.2-0.37 2.15-0.54 2.26 1-0.69 0.18-0.98 0.95-1.69 0.99-0.85-0.47-0.6-1.21-0.57-1.99zm10.52 15.59c-0.61 0.17-1.05 0.54-1.63 0.49q-0.15-0.17-0.41-0.46c0.12-2.41 3.04-2.35 2.04-0.03zm-3.1-13.65c-0.73 0.23-1.19-0.2-1.74-0.49-0.37-1.51 1.15-1.89 2.33-1.33-0.23 0.59-0.6 1.17-0.59 1.82zm3.37 7.67c-0.75 1.24-2.24 0.75-2.34-0.7 0.84-1.11 2.55-0.88 2.34 0.7zm-1.06-7.19c1.44 1.22 1.35 2.15-0.64 2.4-0.63-0.33-0.72-0.82-0.56-1.42q0.6-0.5 1.2-0.98zm-2.91-19.74c0.25 0.33 0.4 0.66 0.81 0.8 1.06 0.55-0.59 1.78-1.35 1.48-1.14-1.05-0.95-1.84 0.54-2.28zm-20.8 9.15c0.3-0.22 0.55-0.4 0.9-0.64 3.36 1.16-1.3 4.23-0.9 0.64zm9.67 21.56c-0.41-0.36-0.78-0.67-1.18-1.02q0.03-0.61 0.06-1.24c0.33-0.1 0.59-0.18 0.83-0.26 1.37 0.48 1.65 1.81 0.29 2.52zm6.31-30.32q0.16 0.65 0.32 1.36c-1.01 1.03-1.73 0.35-2.39-0.66q0.14-0.24 0.26-0.41 0.62-0.25 1.26-0.49 0.24 0.07 0.55 0.2zm-13.69 15.52c-1.63 0.89-1.47 0.46-2.51-0.28q0.18-0.48 0.34-0.93c0.38-0.11 0.71-0.21 1.07-0.32 0.4 0.49 1.33 0.5 1.1 1.53zm25.84-17.92c0.04-0.41 0.34-0.7 0.72-0.54 0.44 0.19 0.73-0.07 1.16-0.19 1.16 2.36-1.8 3.09-1.88 0.73zm-3.58 11.85c-0.87 1.47-2.81 0.35-1.74-1.31 1-0.46 1.92 0.1 1.74 1.31zm2.03-2.07c-1.01 0.14-1.58-0.67-1-1.53 1-1.75 3.35 1.48 1 1.53zm1.66-3.33c-0.53-1.23 0.84-1.86 1.86-1.3 1.19 1.53-1.08 2.36-1.86 1.3zm-4.5 12c-0.76-0.4-0.85-1.06-0.96-1.75 0.18-0.23 0.37-0.46 0.52-0.65 1.01 0.06 1.3 0.77 1.73 1.33-0.34 0.51-0.71 0.89-1.29 1.07zm-8.99 11.95c0.74 0.12 1.19 0.42 1.42 1.04q-0.08 0.32-0.16 0.63c-0.85 0.8-2.15 0.11-2.33-0.92q0.62-0.43 1.07-0.75zm4.95 1.56c0.02-1.63 2.72-1.94 2.09 0.07-0.57 0.95-1.32 0.81-2.09-0.07zm7.87-16.94c-0.76 0.9-2.28 0.25-2.51-0.86 1.23-1.33 1.95-0.58 2.51 0.86zm-15.09 12.82c0.36 0.15 0.88 0.27 0.84 0.74-0.29 0.49-0.55 0.94-0.88 1.5-1.46-0.11-1.67-3.28 0.04-2.24zm17.72-5.55c0.23 1.29 0.03 2.24-1.49 1.85-0.11-0.38-0.2-0.71-0.31-1.12 0.38-0.95 0.74-1.52 1.8-0.73zm-0.66-3.78q-0.54-0.26-1.09-0.52c-0.11-0.33-0.21-0.61-0.33-0.97 0.89-0.58 1.13-0.64 2.03-0.49q0.14 0.27 0.33 0.64c-0.34 0.4-0.35 1.02-0.94 1.34zm-15.29 6.5q0.57-0.18 1.03-0.32c2.97 1.81-1.94 3.61-1.03 0.32zm12.19 5.38c0.52 0.22 0.99 0.41 1.16 0.92-0.22 0.39-0.42 0.75-0.66 1.17-2.03-0.29-2.46-1.04-0.5-2.09zm-8.16-14.13q0.3 0.44 0.68 1.01-0.5 0.65-0.95 1.22c-1.7-0.2-1.48-2.63 0.27-2.23zm9.33-13.27c-0.61 1.01-0.7 1.64-2.03 0.95-0.06-0.48-0.4-0.98 0.14-1.52 0.71-0.13 1.49-0.5 1.89 0.57zm-28.9 29.39c-1.33 1.21-1.7-0.97-1.23-1.95 1.39-0.41 1.88 0.9 1.23 1.95zm29.83 2.88c0.04-0.63-0.69-1.07-0.29-1.76q0.57-0.12 1.13-0.24c0.99 0.51 0.97 1.09 0.5 2-0.44 0-0.86 0-1.34 0zm0.93-22.27c-0.86-0.23-0.86-0.23-1.33-0.84 0.22-0.51 0.89-0.81 0.69-1.57 1.67-0.33 1.45 1.83 0.64 2.41zm-19.42 13.61c-0.99 0.53-1.6 0.01-1.75-1.06 0.95-1.22 3.47-0.11 1.75 1.06zm8.57 1.36c0.01 0.54 0.07 1.03 0.19 1.6-0.86 0.15-1.62 0.21-2.18-0.69 0.53-1.18 0.81-1.31 1.99-0.91zm-20.74-3.24c1.62 0.21 1.57 1.98-0.07 2.29-0.89-0.32-0.79-2.13 0.07-2.29zm5.73-3.55c-0.14-0.59-0.7-0.41-0.96-0.68q0.15-0.72 0.28-1.36c0.76-0.11 0.76-0.11 1.51 0.28-0.13 0.84-0.13 0.84 0.21 1.57-0.48 0.43-0.96 0.53-1.04 0.19zm-5.8-5.65c-0.54-0.37-1.4-1.45-0.55-1.85 0.79-0.18 1.45-0.19 1.85 0.66-0.41 0.53-0.61 1.73-1.3 1.19zm4.86 9.78q0.5-0.25 1.01-0.5c0.61 0.19 0.99 0.59 1.25 1.12-0.8 1.15-2.8 1.08-2.26-0.62zm22.99 1.1c0.02-0.52 0.19-0.98 0.44-1.39 1.33-0.15 1.33-0.15 1.7 0.98-0.51 0.51-1.61 1.2-2.14 0.41zm-13.02-9.88q0.28 0.42 0.56 0.84c-0.97 1.23-1.18 1.25-2.28 0.22 0.56-1.2 0.6-1.22 1.72-1.06zm-5.33 7.4c-0.47 0-0.97 0-1.64 0-0.75-2.63 3.31-1.71 1.64 0zm-3.15 6.49c0.21 0.69 0.16 1.43 0.31 2.16-0.77 0.28-1.34 0.09-1.91-0.5 0.46-0.66 0.59-1.46 1.6-1.66zm21.46-9.48c0.13-0.52 0.15-0.92 0.01-1.39 1.95-1.21 2.5 2.97-0.01 1.39zm-25.6 1.9c0.1-1.49 1.79-0.52 2.07 0.44-0.7 1.1-1.91 0.8-2.07-0.44zm-1.03-2.32q-0.39 0.27-0.85 0.59c-0.45-0.47-0.84-0.88-1.28-1.34 0.93-1.4 2.16-0.77 2.13 0.75zm-4.85 8.72c0.22-0.54 0.41-0.98 0.6-1.42 1.03-0.24 0.98 0.75 1.44 1.13-0.64 1.08-1.16 1.17-2.04 0.29zm-0.03 4.94c0.38-0.48 0.38-0.48 1.17-0.72 0.33 0.31 0.86 0.43 1.16 0.93-0.59 1.39-1.79 0.92-2.33-0.21zm7.23-0.94c1.05 0.63 0.26 0.97-0.2 1.46-0.14 0.34-0.05 0.75-0.53 0.85q-0.45-0.35-0.84-0.66c0.28-0.85 1.05-1.13 1.57-1.65zm31.05 48.11q0 0.35 0 0.71c0.15-0.04 0.3-0.08 0.51-0.14 0.15 0.46 0.39 0.77 0.81 1.03-0.35 0.54-0.77 0.76-1.32 0.76q-0.62 0.1-1.21 0.2c-0.69-0.91-0.55-1.76-0.11-2.56 0.49 0 0.9 0 1.32 0zm-1.64-4.55c0.51-0.51 0.88-1.1 1.64-1.13q0 0.48 0 0.95c0.35 0.14 0.79-0.07 1.12 0.31-0.22 0.52-0.67 0.82-1.12 1.11q0 0.12 0 0.23c-0.97 0.35-1.25-0.83-1.64-1.47zm0.76 10.37c0.35-0.06 0.62-0.1 0.88-0.15q0 0.24 0 0.47c0.8-0.15 0.99 0.39 1.16 0.92-0.21 0.66-0.32 1.48-1.16 1.45q0-0.12 0-0.24c-0.8 0.23-1.07-0.39-1.48-0.9q0.31-0.8 0.6-1.55zm-29.14-49.79q0.12 0 0.24 0c-0.6-1.85 2.57-1.6 2.36 0q-0.12 0-0.24 0c-0.13 1.09-1.05 1.43-1.97 1.67-0.51-0.51-0.41-1.1-0.39-1.67zm28.59 62.75c0.36-1.19 0.41-1.25 1.43-1.53q0 0.24 0 0.47c0.34 0.13 0.79-0.04 1.01 0.38-0.17 0.87-0.17 0.87-1.01 1.04q0 0.12 0 0.24c-0.62 0.1-1-0.31-1.43-0.6zm-34.26-62.75q0.23 0 0.47 0c-0.79-1.64 1.31-1.46 2.03-0.67q-0.07 0.34-0.14 0.67c0.39 1.58-2.51 1.23-2.36 0zm28.84 0c0.03-0.97 0.03-0.97 1.12-1.21 0.55 0.28 1.49 0.49 1 1.21-0.13 1.29-2.14 1.3-2.12 0zm-15.98 1.32c-0.16-0.41-0.51-0.61-0.91-0.66-0.06-0.28-0.09-0.47-0.13-0.66q-0.24 0-0.48 0c0.2-0.87 3.08-1.31 2.37 0q-0.24 0-0.48 0c0.04 0.6 0.6 1.1-0.37 1.32zm15.52 9.6q0.48-0.4 0.94-0.77c2.63 0.03 1.7 3.19-0.64 2.76-0.54-0.6-0.29-1.32-0.3-1.99zm-21.61 52.7c-1.52-0.48-1.31-2.4 0.29-2.53 1.93 0.3 1.67 2.85-0.29 2.53zm17.36-45.13c-2-0.17-1.05-3.62 0.51-2.56 1.08 1.28 0.95 1.76-0.51 2.56zm-2.9 8.49q-0.66-0.73-1.34-1.47c0.93-1.78 2.2-1.54 2.79 0.31-0.39 0.53-0.62 1.21-1.45 1.16zm-28.49 25.57c0.86 0.27 1.45 0.7 1.41 1.63-0.59 1-1.37 0.88-2.38 0.67-0.66-0.94 0.19-1.81 0.97-2.3zm34.49-45.15c2.39 1.21-0.4 3.75-1.73 1.26 0.64-0.68 0.49-1.97 1.73-1.26zm-22.92 70.63c-0.5-0.25-1.33 0.02-1.44-0.67-0.04-1.62 1.65-2.64 2.56-0.91-0.16 0.73-0.54 1.19-1.12 1.58zm28-59.52c0.4 0.21 0.75 0.38 1.12 0.56 1.66 3.49-4.56 2.02-1.12-0.56zm-32.27-7.42c0.53-1.24 2.43-1.04 2.74 0.37-0.33 1.79-2.83 1.17-2.74-0.37zm11 53.05c0.53 1.62-1.22 3.3-2.28 1.52-0.31-1.75 0.93-1.58 2.28-1.52zm15.2-48.79q-0.36-0.53-0.71-1.04c0.21-0.39 0.4-0.76 0.62-1.19 2.33-0.62 2.64 3.14 0.09 2.23zm3.35 23.09c0.77 0.5 1.26 1.1 1.19 2.07-0.52 0.72-1.22 0.41-1.88 0.29-0.5-0.84-0.5-0.84-0.5-1.56q0.6-0.4 1.19-0.8zm-23.55 40.33c0.73-0.58 1.71-0.66 2.39-0.11-0.29 0.61-0.23 1.56-0.7 1.87q-0.57-0.07-1.12-0.14c-0.57-0.28-0.77-0.72-0.57-1.62zm14.09-76.51c0.38-0.29 0.79-1.04 1.33-0.63 1.75 1.53 0.65 2.18-1.1 2.52-0.2-0.73-0.86-1.3-0.23-1.89zm13.42 35.61c-0.85-0.13-1.73 0.13-2.26-0.73 0.03-2.73 3.14-1.47 2.26 0.73zm-20.75 28.74c0.33 0.76 0.83 1.17 1.31 1.69-1.52 2.79-3.98-0.1-1.31-1.69zm-17.03-42.47c-0.82-0.15-0.93-0.82-1.2-1.33 0.2-0.52 0.21-1.12 0.9-1.41 1.83 0.13 1.69 2.05 0.3 2.74zm33.8 45.36c-0.93-0.29-1.24-1.89-0.58-2.33 1.94-0.82 3 2.11 0.58 2.33zm-19.4-8.42c-1.58-0.35-1.99-1.97-0.46-2.6 1.74-0.19 1.53 1.78 0.46 2.6zm6.03-57.02c-1.69 0.94-2.19-1.12-1.24-2.26 1.28-0.06 2.56 1.25 1.24 2.26zm-4.55 29.2c0.4-0.13 0.72-0.23 1.06-0.34 0.31 0.22 0.59 0.42 1.02 0.71 0.05 2.7-3.33 2.04-2.08-0.37zm-9.62 45.14c0.36 0.41 0.56 0.86 0.7 1.27q-1.24-0.29-2.4-0.62 0.12-0.22 0.25-0.43c0.54-0.08 0.99-0.15 1.45-0.22zm17.91-1.66c0.33-0.36 0.38-0.69 0.46-1.24 3.98-0.52 0.91 4.52-0.46 1.24zm5.25-70.42c-0.97 0.89-1.22 0.66-2.14 0.1-1.25-1.43 2.32-3.39 2.14-0.1zm-28.05 70.51c0.19-0.2 0.5-0.37 0.49-0.52 0.18-1.71 1.8-0.74 2.27 0.22-0.53 1.38-2.07 1.83-2.76 0.3zm34.47-63.1c1.34-1.62 2.15-0.51 2.41 1.17-0.82 0.7-3.3 0.13-2.41-1.17zm-25.94 43.58c-0.12-0.96 0.74-1.22 1.12-1.75 1.16-0.1 1.29 0.7 1.45 1.47-0.65 1.04-1.7 1.2-2.57 0.28zm-8.28 13.75c-0.01-1.87 2.51-1.56 2.47 0.14-0.65 1.1-2.18 1.35-2.47-0.14zm23.52-55.44c-0.81-1.07-1.23-2.93 0.75-2.51 1.26 0.57 0.8 2.72-0.75 2.51zm2.32 47.9c-0.67-1.35 0.18-2.85 1.68-1.89 0.16 0.35 0.31 0.66 0.54 1.16-0.71 0.5-1.33 1.43-2.22 0.73zm-17.79-38.12c-0.01 1.1-1.53 1.98-2.11 0.96-0.47-1.35-0.16-1.8 1.26-2.13 0.26 0.36 0.53 0.73 0.85 1.17zm-14.26 47.6c0.11 0.3 0.09 0.51 0.01 0.69q-0.27-0.44-0.43-0.9 0.21 0.1 0.42 0.21zm32.53-51.39c1.62 0.12 2.04 1.65 0.69 2.5-0.52 0.23-0.86-0.44-1.37-0.46-0.96-0.67 0.42-1.27 0.68-2.04zm-30.85 19.75c1.45 0.25 1.56 1.9 0.38 2.61-0.39 0-0.67-0.13-0.91-0.31q0.09-0.98 0.17-1.97 0.18-0.16 0.36-0.33zm30.98 8.38c0.75 0.6 2.41 1.24 1.25 2.27-2.32 0.71-2.79-0.8-1.25-2.27zm-27.21-9.12c-0.82 0.45-1.85 0.6-2.12-0.56-0.21-2.16 2.88-1.81 2.12 0.56zm1.92-2.55c-2.54-0.83-0.38-4.06 1.14-1.48-0.13 0.76-0.32 1.37-1.14 1.48zm24.02-29.37c-0.97 2.13-3.77 0.2-1.93-1.38 1.05-0.54 1.28 0.93 1.93 1.38zm-16.1 66.3q-0.44-0.45-0.84-0.87c0.41-1.69 2.38-2.13 2.62-0.17-0.27 0.91-1.07 0.76-1.78 1.04zm2.27-43.71c0.33-1.08 0.55-1.27 1.68-1-0.21 0.79 0.9 0.69 0.87 1.47-0.99 1.32-2.13 1.08-2.55-0.47zm-8.52-2.88c-0.16-0.83 1.18-1.65 1.65-0.71 0.18 0.29 0.56 0.24 0.67 0.58 0.36 1.7-2.53 1.78-2.32 0.13zm18.99 51.96c-0.54 0.07-1.04 0.14-1.68 0.23-1.09-2.16 1.36-3.13 2.27-1.05q-0.31 0.43-0.59 0.82zm-13.82-43.62c-0.41 0.36-0.73 0.64-1.04 0.91q0.08 0.11 0.16 0.22c-3.66 0.26-0.52-4.06 0.88-1.13zm15.51 27.41c1.93 0.41 2.31 1.55 0.47 2.47-1.02-0.63-1.02-0.63-1.44-1.25 0.23-0.47 0.62-0.76 0.97-1.22zm-8.39-54.11c0.7 0.35 1.22 0.79 1.6 1.7-1.29 1.25-1.59 0.7-2.82-0.33 0.48-0.46 0.56-1.19 1.22-1.37zm-16.25 39.98q0.42 0.52 0.86 1.07c-1.82 3.21-4.23-1.55-0.86-1.07zm-3.45-12q0.09-1.09 0.19-2.19c0.21 0.01 0.45 0.08 0.74 0.3 0.73 1.2-0.08 2.03-0.93 1.89zm8 19.85q-0.38-0.46-0.75-0.91c0.18-0.59 0.75-0.97 1.09-1.44 0.98 0.21 0.98 0.21 1.38 1.06-0.48 1.4-0.54 1.44-1.72 1.29zm-7.86 17.63q0.32 0.26 0.6 0.53-0.35-0.25-0.66-0.5 0.03-0.02 0.06-0.03zm21.19 1.31c0.24-1.69 1.92-1.8 2.5-0.28 0.05 1.34-2.09 1.48-2.5 0.28zm19.35-69.04c0.06 0.85 0.27 1.7-0.74 2.14-2.14-0.45-1.2-3.64 0.74-2.14zm-24.1 7.61c-0.43-0.21-0.54-0.68-0.89-1.07 1.56-3.26 4.06 0.28 0.89 1.07zm-11.54 45.07c-1.59-0.72 0.25-1.41 0.81-2.19 0.61 0.52 1.1 1 1.06 1.9-0.62 0.53-1.16 0.87-1.87 0.29zm16.4-34.67c0.47-0.68 0.26-1.48 1.23-1.6 0.84 0.59 1.81 1.27 0.89 2.27-0.81-0.01-1.6 0.05-2.12-0.67zm-19.34 48.94c-0.96-1.6 0.61-3.23 1.95-1.39 0.35 1.3-0.98 1.57-1.95 1.39zm23.48-70.46c0.59 0.54 0.95 0.86 1.4 1.4-0.79 2.3-4.22 0.31-1.4-1.4zm-24.5 21.37q0.02-0.26 0.04-0.51 0.05 0.13 0.07 0.32-0.06 0.09-0.11 0.19zm7.24 49.59c-1.87-2.13 0.22-4.23 1.49-1.31-0.63 0.34-0.64 1.23-1.49 1.31zm8.61-5.58c0.46 0.34 0.86 0.64 1.3 0.96q0 0.57 0 1.21c-1.78 0.92-3.29-0.99-1.3-2.17zm18.6 4.45c0.51-1.39 1.79-1.54 2.86-0.56-0.61 1.45-1.99 1.97-2.86 0.56zm-27.13-4.8q-0.46-0.15-0.88-0.29c-1.92-3.34 4.89-1.36 0.88 0.29zm-9.69-4.33c0.29-0.44 0.82-0.67 1.24-0.97 0.72 0.27 1.21 0.72 1.45 1.49-1.3 1.14-2 0.99-2.69-0.52zm37.1-41.94c0.19-0.79 0.48-1.4 1.41-1.41 0.33 0.26 0.7 0.55 1.15 0.9-0.49 1.24-1.99 2.2-2.56 0.51zm-33.63-7.06c0.6-0.12 1.17-0.1 1.62 0.38 0.14 0.66 0.06 1.25-0.46 1.83-0.75 0-1.3-0.26-1.53-0.67q0.05-0.6 0.11-1.19 0.1-0.17 0.26-0.35zm4.85 26.87c-0.63 1.02-1.88 0.85-2.71 0.1 0.27-1.78 2.48-1.94 2.71-0.1zm19.68-3.6c0.08 0.34 0.16 0.68 0.25 1.08-1.08 0.67-1.08 0.67-1.97 0.5-0.88-1.47 0.37-3.07 1.72-1.58zm8.28-2.84q0.13 0.42 0.27 0.89c-0.37 0.5-0.89 0.76-1.38 1.02-0.89-0.7-1.49-2.67 0.14-2.65q0.5 0.38 0.97 0.74zm-32.18 27.41c-1-0.17-1.2-1.39-0.72-2.16q0.27 0 0.54 0 0.15-0.24 0.28-0.44c0.36 0.26 0.7 0.5 1.14 0.82 0.31 1.08-0.63 1.32-1.24 1.78zm5.48-0.21c-0.55-0.3-0.42-1-1.09-1.36 0.53-0.39 0.99-0.74 1.49-1.11 1.39 0.46 1.35 2.89-0.4 2.47zm28.01-18.89c0.68-1.26 2.24 0.56 1.77 1.5-0.29 0.24-0.72-0.01-0.98 0.32-0.6 0.28-1.33-0.54-1.41-1.14 0.3-0.19 0.52-0.32 0.62-0.68zm-3.08 25.46c1.45-0.75 1.67-0.22 2.09 1.23-0.78 0.25-1.21 0.95-2.02 0.7-0.06-0.67-0.7-1.51-0.07-1.93zm-18.37-3.09q0.17 0.45 0.36 0.96c-0.26 1.63-1.44 1.47-2.34 0.37q0.2-0.56 0.35-0.99c0.98-0.4 0.98-0.4 1.63-0.34zm4.17-50.7c0.53-1.08 2.06-0.07 2.22 0.88-1.15 1.37-3.11 1.2-2.22-0.88zm0.04 22.56c0.69-0.15 1.33-0.22 1.99 0.31 0.27 1-0.42 1.4-1 1.87-0.45-0.28-0.85-0.52-1.26-0.77 0.16-0.5 0.23-0.89 0.27-1.41zm19.73-7.28c-0.18-0.58 0.15-1.28 0.81-1.55 1.03 0.16 1.23 0.88 1.36 1.67-1.14 0.87-1.31 1.47-2.17-0.12zm-16.92 23.37c-1.33-2.2 0.6-2.5 2.05-1.35q-0.18 0.52-0.38 1.1c-0.54 0.09-0.99 0.52-1.67 0.25zm10.09-10.6c0.65 0.66-0.21 1.75-0.77 2.36-2.34-0.55-0.87-2.88 0.77-2.36zm-9.45 16.61q-0.3-0.16-0.61-0.32c-0.45-1.83 1.07-3.29 2.01-1.17-0.15 0.88-0.79 1.13-1.4 1.49zm-12.19 10.64c0-0.42 0-0.86 0-1.26 3.25-1.94 2.66 3.15 0 1.26zm11.35-62.29c-0.25-0.91 0.03-1.53 0.88-1.95q0.52 0.35 1.09 0.72c0.24 1.75-0.69 2.01-1.97 1.23zm-4.62-1.99c1.25 0.45 1.87 1.96 0.27 2.26-1.6 0.31-1.82-1.87-0.27-2.26zm-4.55 0.17c0.54 2.18-2.88 2.94-2.18 0.37 0.72-0.18 1.54-0.9 2.18-0.37zm14.17 66.4c-0.31 1.16-1.87 1.45-2.23 0.21-0.53-1.73 2.25-1.8 2.23-0.21zm-7.6-0.96c1.02-0.99 2.06 0.27 1.77 1.37-0.99 0.81-1.05 1.3-2.02-0.01q0.13-0.69 0.25-1.36zm-0.21-16.82c0.45-0.57 1.89-0.19 2.33 0.23-0.62 0.65-0.85 1.65-1.81 1.76-0.85-0.35-0.61-1.28-0.52-1.99zm-7.37 2.31c0.4 0.33 0.75 0.63 1.13 0.94-0.95 1.82-1.33 2-2.62 0.25 0.32-0.62 0.78-0.99 1.49-1.19zm-0.13-43.03c-1.63-1.08-1.24-1.54 0.18-2.67 0.36 0.31 0.7 0.61 1.08 0.94-0.69 0.42-0.2 2.32-1.26 1.73zm29.55 38.51c-1.12 2.49-3.88-0.91-1.05-1.38 0.5 0.38 0.91 0.77 1.05 1.38zm-1.48-6.74c2.32 0.12 1.52 2.87-0.34 2.08-0.67-0.55-0.75-1.92 0.34-2.08zm1.66-4.47c-0.52 1.78-2.43 0.93-2.51-0.63 1.28-0.74 1.47-0.68 2.51 0.63zm-29.75-10.24c-0.31 0.27-1.08-0.08-0.82-0.5 0.41-0.54-0.18-0.86-0.26-1.24 0.88-1.19 1.59-0.59 2.38 0.22-0.45 0.64-0.61 1.17-1.3 1.52zm17.47-11.51c-1.38 0.59-2.19-2.17-0.48-2.03 1.39-0.13 1.8 1.5 0.48 2.03zm-21.35 12.75c0.08-0.14 0.17-0.31 0.33-0.59 4.48-0.54 0.43 4.45-0.33 0.59zm-3.61 33.47c0.16 0.98-0.16 2.42-1.51 2-0.34-0.4-0.38-0.88-0.62-1.44 0.69-0.51 1.31-1.32 2.13-0.56zm31.43-0.92c-1.6 0.46-1.86 0-2.56-1.01 1.1-2.1 2.17-0.58 2.56 1.01zm-25.16-23.63c0.35-0.77 1.36-1.63 2.16-0.85 0.27 0.78-0.03 1.37-0.56 1.88-1 0.08-1 0.08-1.6-1.03zm20.32-9.44c1.35-0.8 2.32 0.67 1.39 1.74-0.75 0.14-1.37 0.02-1.96-0.37 0.03-0.57 0.36-0.96 0.57-1.37zm-9.63-11.51c0.03 0.49 0.18 0.79 0.45 1.22-2.61 2.5-3.5-1.96-0.45-1.22zm14.21 54.44q0.06 0.59 0.13 1.27c-0.74 0.27-1.39 0.2-2.07-0.27-0.08-0.45-0.11-0.85-0.12-1.27 0.98-0.57 0.98-0.57 2.06 0.27zm-1.09-15.19q-0.54-0.5-0.95-0.88c0-0.48 0-0.87 0-1.25 1.1-1 1.36 0.47 2.33 0.78-0.1 0.85-0.75 0.97-1.38 1.35zm-10.35-41.9c0.31 1.61-0.45 2.7-1.95 1.49 0.17-0.75 0.17-0.75 0.03-1.48 0.58-0.48 1.29-0.12 1.92-0.01zm7.37 59.27c0.7 0.25 1.55 0.23 1.68 1.24q-0.25 0.07-0.41 0.22-0.87 0.19-1.76 0.35-0.31-0.38-0.67-0.82 0.62-0.53 1.16-0.99zm-4.18-55.84c-0.39 2.29-2.71 1.53-2.26-0.59 1.25-0.17 1.25-0.17 2.26 0.59zm-22.2 31.62c0.18-2.21 1.91-1.07 2.31 0.35-0.65 0.74-2.54 1.12-2.31-0.35zm16.98-39.37c0.08-1.14 1.27-2.46 2.08-1.15q-0.17 0.2-0.39 0.45c0.31 0.14 0.53 0.25 0.74 0.35-0.4 1.33-1.52 1.05-2.43 0.35zm7.25 17.02c-0.83-0.94-0.79 0.29 0 0m5.71-1.62c1.09 1.62 0.24 3.1-1.52 1.69 0.1-1.36 0.1-1.36 1.52-1.69zm-28.92-5.72q0.74 0.47 1.46 0.92c-1.09 3.08-4.03-0.1-1.46-0.92zm30.74 54.22c0.26-0.18 0.56-0.3 0.83-0.3q-0.41 0.16-0.83 0.3zm-10.73-23.04q0.73 0.57 1.38 1.07c-0.41 1.86-2.24 1.47-2.57-0.24 0.42-0.29 0.79-0.55 1.19-0.83zm-25.11 5.14c-0.55-0.25-1.21-0.41-1.6-1.13 1.12-2.8 3.29-0.05 1.6 1.13zm8.63-22.12c0.61 0.43 0.31 1.14 0.66 1.56-0.78 1.41-2.62 0.63-2.01-1.03q0.68-0.27 1.35-0.53zm-2.23 26.84c-1.93 1.84-3.36-0.22-1.22-1.53 0.91 0.12 1.06 0.76 1.22 1.53zm18.47-55.26c0.78 0.16 1.28 0.5 1.29 1.53-1.44 1.95-3.34-0.39-1.29-1.53zm-6.82-4.82c0.32-0.34 0.56-0.71 1.09-0.87 0.53 0.72 0.9 0.97 1.79 1.18-1.05 1.42-2.44 1.53-2.88-0.31zm19.53-0.23c0.31 0.93-0.52 1.77-1.44 1.74-0.42-0.08-0.58-0.2-0.49-0.7-0.89-1.61 0.78-1.64 1.93-1.04zm-30.31 46.64c-0.57-2.12 1.46-2.53 1.96-0.4-0.57 1.11-0.78 1.15-1.96 0.4zm27.13 3.03c-0.61 0.09-1.22 0.1-1.95-0.03-0.59-2.7 2.88-2.47 1.95 0.03zm-8.74 12.19c0.61 0.34 0.34 1.02 0.61 1.49q-0.73 0.58-1.39 0.75c-0.36-0.41-0.65-0.75-1-1.15 0.35-0.52 0.91-1 1.78-1.09zm-25.66-34.71q0.08-0.93 0.16-1.87c0.11 0.14 0.2 0.34 0.37 0.7-0.15 0.64-0.33 1-0.53 1.17zm8.55-25.48c-0.27-0.05-0.45-0.29-0.71-0.44-0.21 0.14-0.35 0.24-0.49 0.33-1.31-3.13 3.61-2.5 1.2 0.11zm11.78 37.89c0.05 0.85 0.19 1.83-0.8 2.08-0.26-0.13-0.72-0.38-0.87-0.5 0-0.64 0-1.05 0-1.53 0.66-0.7 0.71-0.7 1.67-0.05zm-4.01-0.96c-0.95 0.01-0.89-1.67-0.18-2.19 1.85 0.01 2.23 2.24 0.18 2.19zm15.05-33.22c0.8 1.24 0.12 2.38-1.32 1.99-0.51-0.42-0.33-0.82-0.22-1.24 0.12-1 0.76-0.88 1.54-0.75zm-14.72 36.62c0.56 0.48 0.56 0.48 0.91 1.29-0.34 0.38-0.57 0.72-0.75 1.15-1.5-0.27-1.97-2.44-0.16-2.44zm-10.25-44.74c-0.15 1.54-2.15 2.02-2.28 0.21 0.25-1.06 1.89-1.29 2.28-0.21zm32.27 22.27c0.53-0.67 1.96-0.14 1.62 0.74-0.18 0.39-0.24 0.78-0.2 1.36-0.98-0.4-1.88-0.03-1.57-1.37-0.06-0.26-0.05-0.52 0.15-0.73zm-41.1 38.43q0.03-0.57 0.07-1.17 0.17 0.47 0.27 1.17-0.18-0.02-0.34 0zm41.06 6.82q0.57 0.07 1.25 0.15c0.09 0.34 0.26 0.71 0.47 0.96-0.34 2.41-3.47 0.08-1.72-1.11zm-23.13-33.18c0.35-0.38 0.92-0.34 1.13-0.85 0.09-0.22 0.42-0.19 0.62-0.03 1.79 1.66-1.47 3.31-1.75 0.88zm-1.96-9.48c1.15-0.27 2.07 2.03 0.41 2.07-1.28-0.02-1.84-1.61-0.41-2.07zm18.94 20.98c0.2-0.42 0.35-0.89 0.71-1.29 0.63 0.11 1 0.29 1.66 0.54-0.69 1.83-0.87 2.68-2.37 0.75zm1.15-4.57c-0.27-0.15-0.6-0.34-0.82-0.46 0-0.53 0-0.93 0-1.37q0.39-0.21 0.84-0.44c0.44 0.46 1.05 0.67 1.37 1.2-0.33 0.54-0.63 1.04-1.39 1.07zm-19.59 2.68c-3.1 0.1 0.29-4.26 0.93-0.73-0.57 0.69-0.57 0.69-0.93 0.73zm-6.85-30.04c0.58-0.61 1.1-0.2 1.62-0.07 1.25 2.43-2.32 2.85-1.62 0.07zm16.16 48.38c-0.22 1.37-0.22 1.37-0.57 1.75-0.5-0.31-1.22-0.08-1.68-0.71 0.09-1.45 1.08-1.59 2.25-1.04zm-17.85-32.5c-1.3-0.44-2.13-1.85-0.26-2.13 1.34-0.11 1.54 1.78 0.26 2.13zm14.45 17.97c0.21 0.39 0.75 0.53 0.78 1.2-1.99 2-4.01-1.66-0.78-1.2zm-7.3-39.32c0.5-0.2 0.96-0.38 1.46-0.58q0.32 0.29 0.71 0.64c0.31 2.03-2.7 1.72-2.17-0.06zm26.37 47.68c0.81 0.41 1.85 0.52 1.12 1.67-1.37 1.02-3.51-0.98-1.12-1.67zm-35.13-43.99c0.43-1.07 0.84-1.3 2.2-1.16 0.97 1.44-1.55 2.55-2.2 1.16zm20.49 3.36c-0.44-1.04-0.04-2.89 1.11-1.64 0.13 0.4 0.33 0.55 0.72 0.61 1.08 0.84-1.13 1.45-1.83 1.03zm0.05 11.53q-0.22-0.57-0.5-1.31c1.44-1.41 2.44-0.39 2.08 1.11-0.55 0.15-0.98 0.53-1.58 0.2zm-18.39-20.09c-0.66 0.31-1.16 0-1.67-0.21q-0.09-0.68-0.16-1.29c1.67-1.44 1.86-0.12 1.83 1.5zm16.78 62.44c-1.67 0.98-1.73-0.06-1.65-1.45 0.93-0.63 3.33 0.54 1.65 1.45zm-11.75-67.81c-1.19-0.55-1.24-0.67-0.8-1.92 1.35-0.24 1.43-0.19 1.82 1.06-0.19 0.47-0.56 0.71-1.02 0.86zm27.08 61.04c0.55-0.42 1.03-0.95 1.76-0.53 1.33 2.04-1.82 2.86-1.76 0.53zm-16.16-17.9c0.57 0.27 1.23 0.37 1.43 1.22-0.83 2.19-3.64-0.11-1.43-1.22zm6.45 2.06c-1.82-0.53-1.13-0.13-1.39-1.64 1.34-1.33 2.94 0.53 1.39 1.64zm-23.7-1.82c1.34-0.29 1.55 0.52 1.56 1.71-1.43 0.65-2.99-0.41-1.56-1.71zm-7.47 21.63q0.03-0.81 0.07-1.78 0.09 0 0.17 0.01 0.27 0.55 0.51 1.04c-0.19 0.41-0.46 0.64-0.75 0.73zm13.95-19.75c-0.62-0.33-1.17-0.5-1.68-0.91 0.31-0.34 0.6-0.64 0.93-0.99 1.71-0.3 2.22 0.9 0.75 1.9zm24.94 6.42c2.28 0.02 1.11 3.39-0.58 1.69-0.09-0.62-0.21-1.25 0.58-1.69zm-34.49-9.09c-0.42-0.09-0.54-0.58-0.18-0.87 0.47-0.34 0.19-0.93 0.57-1.35 0.4-0.01 0.6 0.14 0.97 0.26 0.65 1.33 0.25 2.37-1.36 1.96zm28.19-7.38c0.4-1.07 1.98-0.03 2.07 0.93-0.9 1.47-2.48 0.66-2.07-0.93zm-4.65 5.16q0.48 0.68 0.92 1.29c-0.1 0.48-0.36 0.74-0.81 0.96-1.57-0.29-1.89-2.07-0.11-2.25zm-23.93 12.19c0.5-1.17 1.79-0.68 2.38 0.25-0.45 1.38-2.43 1.13-2.38-0.25zm25.76-19.05c0-0.39 0-0.73 0-1.1 2.51-1.53 3.3 2.69 0 1.1zm0.29 32.35q0.66 0.15 1.18 0.28c0.53 1.35 0.53 1.35-0.32 1.98-1.2-0.07-1.59-1.29-0.86-2.26zm-7.31 8.56c1.28 1.46-0.77 2.96-1.49 1.28-0.2-1.06 0.44-1.73 1.49-1.28zm-5.44-37.75c-0.55 0-1.08 0-1.68 0-0.77-2.4 3.21-2.21 1.68 0zm-14.09 8.18c-0.43 0.19-0.85 0.37-1.34 0.58-1.5-2.65 1.25-3.61 1.34-0.58zm31.36 7.83c-0.37 1.67-2.08 1.37-2.2-0.22q0.2-0.31 0.34-0.53c0.82-0.2 1.4 0 1.86 0.75zm-14.17-53.18c-0.8 0.23-1.6 0.66-2.2-0.57 0.64-1.37 2.83-1.22 2.2 0.57zm16.26-1.66c0.2 0.37 0.4 0.74 0.66 1.23-0.14 0.94-1.5 1.5-1.79 0.45 0.03-0.78-0.13-1.99 1.13-1.68zm-4.84 57.87q-0.21 0.37-0.47 0.82-0.76 0-1.51 0-0.05-0.75-0.09-1.38c1.2-0.74 1.52-0.65 2.07 0.56zm-12.89-32.76c-0.03-0.29-0.06-0.52-0.08-0.76q-0.44-0.16-0.69-0.54c0.18-0.44 0.31-0.86 0.85-1.14 0.55 0.39 1.08 0.77 1.67 1.19-0.51 0.53-0.93 1.12-1.75 1.25zm-5.89-7.85c0.79 0.2 1.31 0.7 1.74 1.35-0.29 0.66-0.91 0.73-1.49 0.84-0.91-0.89-1.19-1.56-0.25-2.19zm22.39 6.52c0.24-1.09 2.09-1.55 1.85-0.07 0.39 1.72-1.84 1.4-1.85 0.07zm-25.47-2c0.23-0.77 0.23-0.77-0.1-1.41 0.24-0.22 0.44-0.41 0.67-0.62 2.29 0.74 1.64 2.58-0.57 2.03zm-4.36-17.4q-0.32 0.2-0.55 0.28 0.09-0.97 0.18-1.92c0.29-0.05 0.54 0.1 1.04 0.46 0.1 0.73 0.08 1.02-0.67 1.18zm0.47 21.44c0.34 1.29-1.45 1.9-2.31 1.15 0.45-1.35 1.21-1.98 2.31-1.15zm23.08 34.83c-0.17 0.28-0.33 0.53-0.57 0.91-1.09 0.24-2.85-0.34-1.25-1.34 0.65-0.96 1.3-0.15 1.82 0.43zm-1.34-10.23c-1.18-0.54-1.21-0.59-1.04-1.75 1.64-0.67 3.02 1.04 1.04 1.75zm2.39 0.51c2.03 0.22 2.13 2.18-0.04 1.89-0.69-0.66-0.93-1.37 0.04-1.89zm10.02-19.13q-0.24 0.68-0.46 1.3c-2.97 0.54-1.61-3 0.46-1.3zm-15.5 7.84c2.52 0.39 1.08 2.26-0.79 1.8-0.32-0.95 0.16-1.4 0.79-1.8zm14.24 8.31c0.17 0.66 0.64 0.86 1.13 1.02q0 0.39 0 0.76-0.62 0.28-1.14 0.74c-0.45-0.28-0.81-0.55-0.97-1.07 0.29-0.62 0.36-0.96 0.98-1.45zm1.96-47.53c0.96-0.48 1.91-0.57 2.18 0.66-1.29 1.58-1.82 1.19-2.18-0.66zm-16.13 27.79c0.52 0.23 0.95 0.31 1.13 0.84 0.21 0.51-0.63 0.71-0.37 1.25-0.04 0.35-0.6 0.29-0.83 0.28-0.62-0.85-1.07-1.74 0.07-2.37zm-11.02 36.37c-1.26-0.43-1.8-1.37-0.44-2.16 0.96 0.38 2.01 2.09 0.44 2.16zm-2.02-20.93q-0.34 0.47-0.64 0.87c-1.32 0.32-1.32-0.75-1.19-1.74q0.68-0.15 1.21-0.26c0.51 0.29 0.36 0.81 0.62 1.13zm24.3-24.4c-0.38-0.28-0.72-0.51-0.86-0.91 0.61-1.58 1.78-1.56 2.33-0.38-0.48 0.42-0.93 0.82-1.47 1.29zm-27.22-1.73c0.42 1.01-0.43 1.29-1.16 1.78-1.76-1.19-0.48-2.47 1.16-1.78zm29.48-1.64c-0.43-0.7 0.16-1.61 0.85-2 0.58 0.23 0.79 0.72 0.97 1.3-0.39 0.91-1.08 0.83-1.82 0.7zm-21.14 32.93c-0.05 0.41 0.49 0.79 0.13 1.31-1.09 0.14-1.58-0.12-2.05-1.13 0.51-0.8 1.25-0.86 1.92-0.18zm16.31 24.1c-0.48-0.22-0.92-0.43-1.45-0.68 0.89-2.09 3.9-0.89 1.45 0.68zm-2.18-32.68c0.06 0.64 0.06 0.64-0.38 1.72-0.59-0.07-1-0.35-1.39-0.61-0.25-1.1 0.99-1.93 1.77-1.11zm-15.15-7.11c-0.27-0.33-0.54-0.65-0.88-1.07 1.94-2.25 3.44 1.62 0.88 1.07zm6.99-6.38c-0.22 0.39-0.26 0.86-0.74 1-0.47-0.24-0.9-0.46-1.35-0.69 0.41-0.63 0.78-1.19 1.3-1.99 0.23 0.73 0.5 1.2 0.79 1.68zm-0.08 33.45c-0.21 0.51-0.42 1.01-0.69 1.64-2.9-1.1-0.28-3.13 0.69-1.64zm-17.09-28.75c0.01 0.6 0.12 1.2-0.35 1.77-2.41-0.48-1.85-2.18 0.35-1.77zm21.81-0.06c1.16-0.15 0.33 1.1 0.73 1.82-1.94 0.23-2.89-1.02-0.73-1.82zm6.61-4.67c-0.64 0.7-2.52 0.72-2.16-0.48 0.6-0.77 2.53-0.98 2.16 0.48zm-20.36 24.61c1.53 1.69-0.5 2.38-1.47 0.77 0.44-0.99 0.44-0.99 1.47-0.77zm3.52-36.14q-0.38 0.48-0.77 0.96c-0.49 0.07-0.83-0.2-1.22-0.34 0.02-0.6-0.18-1.19 0.58-1.62 0.39 0.43 1.16 0.28 1.41 1zm1.29 36c1.32-0.2 1.54 1.09 0.84 1.8-0.63 0.21-0.55-0.95-1.3-0.69-0.93-0.13-0.25-1.34 0.46-1.11zm-2.56-29.34c-0.61-0.31-0.61-0.31-1.06-0.9 1.35-1.64 3.94 0.01 1.06 0.9zm7.84 13.82c-0.07-0.33-0.13-0.63-0.22-1.07 2.59-1.58 2.67 2.01 0.22 1.07zm-3.66 39.42c-0.66 0.84-0.66 0.84-2.03 0.31-0.27-1.3 1.59-1.96 2.03-0.31zm12.24-9.39q0.42-0.13 0.82-0.26c3.15 1.48-1.63 2.84-0.82 0.26zm-30.29 4.39c-1.08 0.28-1.48-1.16-0.67-1.83 1.12 0.16 2.38 1.68 0.67 1.83zm12.98-66.16c0.69-0.39 1.17-0.93 1.96-0.89q0.12 0.48 0.2 0.8c-0.31 0.41-0.58 0.77-0.91 1.2-0.29-0.81-1.2-0.13-1.25-1.11zm25.81 70.18c0.54-0.1 1-0.26 1.47 0.22 0.04 0.26 0.08 0.51 0.05 0.75q-0.57 0.3-1.15 0.56c-0.6-0.14-0.9-0.79-0.37-1.53zm-21.67-55.54q0-0.01 0-0.02c-1.04 0.36-1.67-1.12-0.56-1.38 1.19-0.34 2.28 1.49 0.56 1.4zm19.4 7.19c0.3 0.19 0.58 0.37 1.01 0.65-1.03 2.29-3.12 0.07-1.01-0.65zm0.57 35.54q-0.58 0-1.18 0c0-0.36 0-0.66 0-0.97q0.43-0.34 0.93-0.76c1.08 0.46 0.52 1.03 0.25 1.73zm-33.75-52.56c0.45 1.26-0.63 1.7-1.2 1.3q0.06-0.64 0.12-1.28c0.36 0.06 0.62 0.03 1.08-0.02zm40.74-17.47c-0.31 0.86 0.04 2.36-1.38 1.94-2.01 0-1.84-1.95 0-2.13 0.44-0.21 1.56-0.72 1.38 0.19zm5.24 6.9c0.1 1.43-1.72 1.17-1.42 0q-0.35 0-0.71 0c-0.08-1.88 2-1.45 2.37 0q-0.12 0-0.24 0zm-6.62-21.75c-0.82 0.2-1.18-0.72-1.6-1.24 0.4-0.6 0.99-0.76 1.6-0.88q0 0.11 0 0.23c0.62-0.06 1.18-0.01 1.33 0.78-0.4 0.4-0.66 1.18-1.33 1.11zm1.14-7.19c-0.19 0.69-0.16 1.41-1.14 1.28q0 0.12 0 0.24c-0.72 0.25-1.52-0.36-1.39-1.17 0.48-0.26 0.79-0.81 1.39-0.96q0 0.12 0 0.24 0.77-0.31 1.14 0.37zm24.59-3.83c0.23 0.32 0.6 0.69 0.91 0.9 0.22 3.92-4.71 0.81-0.91-0.9zm5.58 17.01c0.72 0.24 0.9 0.93 1.26 1.41-0.12 0.32-0.21 0.57-0.32 0.86-2.65 1.04-3.21-0.96-0.94-2.27zm17.67 0.32c0.73 0.86 0.48 1.62-0.12 1.98l-1.53 0.04q-0.24-0.11-0.46-0.3c-0.48-1.35 1.02-2 2.11-1.72zm-24.08-5.7c0.85 0.15 1.63 0.26 1.97 1.12-0.16 0.51-0.2 1.09-0.82 1.36-1.68-0.1-2.57-1.19-1.15-2.48zm-2.18-2.89c0.7 0.15 1.14 0.49 1.33 1.23-0.97 2.82-4.67-0.34-1.33-1.23zm34.6 8.15c-0.42-0.08-0.9-0.16-1.31-0.22-0.69-1.19-0.67-1.5 0.14-2.43q0.47 0.19 0.99 0.39 0.25 0.19 0.51 0.38c0.39 1.2 0.36 1.25-0.33 1.88zm-24.43-11.81q0-0.73 0-1.53 0.5-0.26 0.94-0.5c0.37 0.13 0.7 0.24 1.1 0.38 0.66 1.22-0.58 3.09-2.04 1.65zm5.17 1.19c0.07 0.35 0.13 0.68 0.22 1.12-2.25 3.27-4.3-2.59-0.22-1.12zm-14.51-3.3c0.44 1.83 0.43 2.46-1.67 2.13-1.57-0.49 0.61-2.87 1.67-2.13zm-0.66 11.36c1.03-0.52 1 0.83 1.19 1.56-0.79 0.6-2.27 1.57-2.38-0.01-0.47-0.98 0.53-1.21 1.19-1.55zm32.33 4.19q-0.28 0.32-0.57 0.65l-1.57 0.04q-0.28-0.08-0.56-0.16c-0.65-2.16 2.38-2.27 2.7-0.53zm-19.92-16.7q0.02-0.21 0.13-0.35 1.06 0.49 2.13 1.02c-0.68 0.5-1.44-0.05-2.26-0.67zm-23.75 15.18c-0.96-0.11-1.89-0.98-1.52-2.02q0.89-0.24 1.72-0.45c1.21 0.78 0.65 1.69-0.2 2.47zm2.35 0.44c0.92-0.49 1.12 0.25 1.63 0.91-0.06 1.3-1.89 1.45-2.68 0.93 0.09-0.33 0.44-0.59 0.38-1.03-0.06-0.47 0.24-0.66 0.67-0.81zm4.62-16.19c0.75-1.37 1.34-1.41 2.44-0.15q-0.15 0.63-0.32 1.37c-1.08 0.07-2.09 0.05-2.12-1.22zm22.58 11.76c0.39-1.08 1.22-1.99 2.27-1.16 1.15 1.61-1.2 2.86-2.27 1.16zm-36.48 14.87c-0.87-1.4-0.05-2.19 1.4-1.86 1.01 0.13 0.74 1.17 0.31 1.8-0.4 0.54-1.15 0.05-1.71 0.06zm4.61-25.68c-0.88 0.34-1.64 0.46-2.14-0.56 0.36-2.23 3.71-1.48 2.14 0.56zm23.32 7.89c0.31-0.87 1.92-2.17 2.32-0.79-0.17 0.39 0.21 0.56 0.3 0.96-1.06 1.51-1.53 0.96-2.62-0.17zm-22.08-1.39c0.44 0.25 0.8 0.29 1.2 0.13 0.88-0.1 0.71 1.55 0.28 1.98-1.23 1-2.77-1.01-1.48-2.11zm2.32-9.89c-0.52 0.36-0.92 0.8-1.59 0.91-3-1.65 0.58-3.58 1.59-0.91zm-4.69 29.83q0.37 0.08 0.7 0.15 0.04 1 0.08 2.1c-0.63 0.23-1.45-0.14-1.73-1.31q0.48-0.47 0.95-0.94zm29.11-17.01c1.46 0.72 0.71 2.94-0.83 2.15-1.53-0.92-0.71-1.96 0.83-2.15zm10.75 2.25c-0.6-0.11-0.96-0.48-1.15-1.14 0.82-2.87 4.73 0.72 1.15 1.14zm-45.4 14.5q0.59 0.29 1.3 0.63c-0.07 0.61-0.12 1.11-0.17 1.6-0.52 0.1-0.97 0.19-1.45 0.28-1.17-0.65-0.7-2.02 0.32-2.51zm9.15-8.21q0.04 0.03 0.08 0.05l-1.16 0.03c0.31-0.2 0.68-0.26 1.08-0.08zm8.98-13.89c0.17 0.65 0.63 1.14-0.2 1.53-0.73 0.84-1.41 0.13-2.01-0.44 0.05-1.2 1.2-2.01 2.21-1.09zm10.96 1.99c-1 0.47-0.94-0.87-1.7-1.21 0.98-2.84 3.56-0.18 1.7 1.21zm-10.97 9.36c0.13 0.56 0.41 1.04 0.29 1.59-0.28 0.19-0.53 0.37-0.81 0.57-2.24-0.59-1.69-3.01 0.52-2.16zm-19.22 0.64q0.29-0.51 0.58-1.01c0.42 0.03 0.99-0.14 1.2 0.25 0.02 0.44 0.45 0.39 0.67 0.63 0 0.42 0 0.76 0 1.14-1.68 0.01-1.57 0.83-2.45-1.01zm27.36-9.53c0.23 0.41 0.43 0.77 0.7 1.24-1.64 3.31-3.95-0.99-0.7-1.24zm-0.56-9.25c-0.95-0.12-1.29-0.79-1.11-1.38q1.08 0.38 2.17 0.8c-0.12 0.39-0.46 0.67-1.06 0.58zm12.33 5.51c-1.09 0.64-1.33 0.61-2.26-0.39 0.35-0.41 0.44-0.96 0.78-1.33q0.78 0.39 1.56 0.8-0.04 0.48-0.08 0.92zm-26.93-8.34c-1.16-0.28-0.71-1.39 0.17-1.94q0.69 0.11 1.39 0.24c0.29 0.97-0.34 1.92-1.56 1.7zm21.64 18.83c-0.53 1.04-0.88 1.93-2.18 1.15-0.08-0.81-0.18-1.59 0.54-2.16 0.69 0.12 1.33 0.28 1.64 1.01zm-27.25-1.61c-1.03-0.48-1.03-2.16 0.23-2.25 1.65 0.32 1.58 3.18-0.23 2.25zm43.72 0.33c0.57 0.8 0.6 1.52-0.24 2.26-2.39 0.22-1.99-2.34 0.24-2.26zm-30.98-17.67c-0.82 0.69-2.27 0.31-2.13-0.89q1.12 0.26 2.26 0.56-0.05 0.15-0.13 0.33zm-17.1 26.76q0.05 0.67 0.24 1.33-0.51 0.42-0.99 0.81c-0.46-0.47-0.92-0.78-1.51-1 0.27-1.2 0.78-1.45 2.26-1.14zm27.18-9.22q-0.47-0.67-0.86-1.21c0.58-2.44 1.42-1.4 2.57-0.13-0.45 0.71-1.12 0.73-1.71 1.34zm15.68-4c-0.75 1.1-0.8 1.11-2.19 0.88-0.73-1.91 1.69-2.94 2.19-0.88zm-21.02-4.39c0.64 0 1.15 0.57 1.15 1.26 0 0.7-0.51 1.27-1.15 1.27-0.63 0-1.14-0.57-1.14-1.27 0-0.69 0.51-1.26 1.14-1.26zm27.27 6.63q0.14-0.34 0.39-0.54 0.87 0.61 1.76 1.25c-0.81 0.93-2.66 0.83-2.15-0.71zm-47.55-18.39q0.34 0.01 0.68 0.03c-0.21 0.16-0.45 0.11-0.68-0.03zm13.03 4.78c-0.54 1.02-2.33 1.05-2.44-0.24 0.3-1.59 2.19-1.27 2.44 0.24zm0.09 11.22c-0.48 1.77-2.32 1.18-2.55-0.43 1.13-0.48 2.05-1.07 2.55 0.43zm-2.52-5.99c0.31-0.47 0.7-0.76 1.29-0.82 2.7 1.67-0.99 3.72-1.29 0.82zm24.04 7.05c-1.79 0.33-1.68-2.43 0.18-2.24 0.81 0.44 0.82 2.02-0.18 2.24zm3.01-5.1c0.47 1.61 1.07 2.22-1.12 2.49-0.86-1.02-0.33-2.43 1.12-2.49zm-14.85 10.79q-0.38-0.3-0.89-0.69c0.36-1.2 0.25-1.69 1.65-1.34 1.48 0.25 0.35 2.02-0.76 2.03zm-26.15-9.71c-0.05-0.48 0.27-0.94 0.72-1.05 3.33-0.07-0.6 4.42-0.72 1.05zm8.35-3.03c1-0.9 2.36-0.8 2.01 0.84-0.4 1.72-2.08 0.43-2.01-0.84zm-4.18 1.42c-1.44 0.38-1.98-0.88-1.22-1.98 0.98-0.27 1.56 0.11 1.96 0.91q-0.37 0.53-0.74 1.07zm-1.15 5.36c-0.32-0.89-0.33-1.68 0.76-2.2 1.77 0.9 1.24 2.97-0.76 2.2zm21.79 7.51c0.72 1.32-1.89 1.85-2.35 0.5 0.21-1.61 1.43-1.41 2.35-0.5zm31.99-0.41c0.6-0.17 1.18-0.61 1.85-0.13 0.14 0.6 0.08 1.03-0.09 1.34l-1.86 0.04c-0.16-0.3-0.18-0.73 0.1-1.25zm-26.09-16.36c-0.68 0.41-1.17 0.99-2 1.12-1.53-2.01 0.8-3.15 2-1.12zm-28.6-5.18q-0.61 0.22-1.1 0.4c-0.42-0.21-0.79-0.4-1.21-0.62-0.11-2.11 2.33-1.78 2.31 0.22zm47.17 14.57c-0.74-0.13-1.36-0.68-1.23-1.25q0.92 0.6 1.84 1.22-0.23 0.08-0.61 0.03zm-8.33 8.49c-1.18 0.39-2.17-1.23-1-1.88 1.7-0.37 2.46 0.52 1 1.88zm-36.32 2.59c-0.34 0.23-0.63 0.43-1.06 0.72-2.84-1.22 1.86-4.03 1.06-0.72zm2.11 3.02c-0.35-0.02-0.7-0.08-1.06-0.31-0.07-0.74-0.13-1.44 0.79-1.72q0.09 0.03 0.17 0.07 0.05 0.86 0.1 1.96zm6.58-23.62q-0.47 0.62-0.93 1.23c-0.46-0.02-0.78 0.09-1.2-0.17 0.31-0.51 0.15-1 0.14-1.54 0.19-1.23 1.73-0.24 1.99 0.48zm31.25 14.37c-0.32 1.2-1.34 0.5-2.17 0.18 0.06-0.57 0.16-1.05 0.54-1.41 1.24-0.06 1.29-0.02 1.63 1.23zm-42.84-15.02c-0.13 0.59-0.09 0.97 0.06 1.55q-0.4 0.15-0.77 0.28c-0.41-0.18-0.79-0.35-1.23-0.54q0.17-0.81 0.29-1.41c0.62-0.45 1.12-0.14 1.65 0.12zm0.05 12.45c-0.48 0.2-0.85 0.61-1.46 0.5-0.22-0.46-0.71-0.78-0.76-1.44q0.59-0.35 1.29-0.76c0.44 0.51 1.23 0.79 0.93 1.7zm34.38 5.07c-0.32 0.43-0.76 0.6-0.83 1.07-0.9 0.93-1.53-0.79-1.54-1.53 1.09-0.96 1.47-0.13 2.37 0.46zm-28.54-11.64c-0.05 0.47-0.09 0.89-0.14 1.41-2.77 0.58-2.63-2.99 0.14-1.41zm-1.82-10.2c-1.04-0.93 0.18-2.23 1.31-1.74 0.4 0.45 0.55 0.93 0.29 1.52-0.55-0.03-1 0.44-1.6 0.22zm-0.21 22.7c-0.37-1.18 1.69-2.17 2.06-0.86 0.03 1.32-1.44 1.76-2.06 0.86zm-1.81-4.34c0.62 0 1.12 0.47 1.12 1.05 0 0.59-0.5 1.06-1.12 1.06-0.61 0-1.11-0.47-1.11-1.06 0-0.58 0.5-1.05 1.11-1.05zm22.31-11.91c0.64 0.46 1.29 0.91 1.53 1.83-0.46 0.35-1.01 0.43-1.51 0.68-0.11-1.15-1.13-1.56-0.02-2.51zm-10.3 12.07c1.34 0.79-0.53 2.07-1.56 1.52-0.02-1.29-0.13-2.28 1.56-1.52zm22.56-0.22c0.16 0.7 0.52 1.18 0.25 1.83-2.46 0.32-2.55-1.43-0.25-1.83zm-27-7.06c0-1.04 0-1.04 0.99-1.39 0.49 0.21 1 0.42 1.11 1.14-0.58 0.58-1.32 1.03-2.1 0.25zm7.42 4.22c-0.08 1.37-1.34 2.88-2 1.02 0.07-0.84 1.29-1.45 2-1.02zm-6.92 1.88c-0.21-0.72-0.21-0.72-0.96-1.19 1.4-1.76 3.85 0.17 0.96 1.19zm-9.22-15.52c0.53-0.53 1.2-0.18 1.78-0.62 0.15 0.57 0.25 0.94 0.37 1.35-0.89 1.15-1.66 0.22-2.15-0.73zm17.31-0.01c0.17-0.08 0.38-0.17 0.55-0.26 0.51 0.2 0.98 0.37 1.52 0.57-0.43 1.63-2.54 1.21-2.07-0.31zm-21.84 52.8c-1.09 0.43-1.7-0.85-1.33-1.8 0.44-0.23 0.73-0.76 1.33-0.8q0 0.36 0 0.71c1.5-0.55 1.44 1.99 0 1.89zm0-5.67c-0.46 0.09-0.91 0.12-1.32-0.03-0.69-0.82-0.05-1.37 0.27-1.97q0.56 0.05 1.05 0.11 0.27-0.07 0.49-0.11c0.59 0.67 0.81 2.17-0.49 2zm0 22.69c-0.63 0.08-1.02-0.26-1.32-0.67 0.08-0.91 0.3-1.63 1.32-1.69q0 0.11 0 0.23c0.6 0.03 0.81 0.49 1.02 0.89-0.28 0.52-0.3 1.33-1.02 1.24zm0 39.48q0 0.11 0 0.23c-1.67 0-1.93-2.23 0-2.13q0 0.12 0 0.24c0.29-0.08 0.58-0.3 0.92 0.13-0.01 0.22 0.01 0.46 0.01 0.69q-0.31 0.44-0.64 0.84-0.13 0.01-0.29 0zm0-67.85q0-0.11 0-0.23-0.31 0.11-0.67 0.24c-1.29-0.75-0.67-2.27 0.67-2.37q0 0.12 0 0.24c1.38 0.05 1.08 1.75 0 2.12zm0 62.17c-0.84 0.25-1.28-0.2-1.7-0.94 0.83-0.03 1.09-0.59 1.7-0.95q0 0.12 0 0.24 0.27-0.06 0.51-0.11 0.33 0.63 0.6 1.15c-0.16 0.61-0.65 0.58-1.11 0.61zm0-45.15q0 0.12 0 0.24c-1.75 0.46-1.46-2.69 0-2.6q0 0.35 0 0.71c0.55-0.14 0.79 0.33 1.27 0.59-0.35 0.53-0.56 1.06-1.27 1.06zm0 5.44c-1.87 0.46-1.82-2.06 0-1.89q0 0.12 0 0.24 0.26-0.06 0.56-0.13c0.37 0.92 0.54 1.5-0.56 1.78zm0 28.13c-0.73 0.1-1.12 0.25-1.38-0.71 0.31-0.53 0.75-0.88 1.38-0.94q0 0.11 0 0.23c1.04 0.11 1.2 2.3 0 1.42zm0-56.26q0 0.12 0 0.24c-0.86 0.19-1.01-0.83-1.18-1.42q-0.12 0-0.24 0c0.02-0.36-0.14-0.76 0.16-1.03q0.67 0.04 1.26 0.08c0.52 0.23 1.32 0.26 1.42 0.95-0.21 0.78-0.69 1.02-1.42 1.18zm4.34 44.17c0.4-1.36 2.63-1.49 2.72 0.11-0.81 1.32-2.58 1.43-2.72-0.11zm3.14-37.66q0.79 0 1.64 0 0.01 0.97 0.02 1.97c-0.66 0.22-1.21 0.05-1.79-0.44 0.3-0.61-0.18-0.96 0.13-1.53zm-2.91 53.97c0.37-0.25 0.75-0.35 1.09-0.33q-0.24 1.08-0.5 2.11c-0.44-0.27-0.65-0.84-0.59-1.78zm-2.07-14.51c1.18-1.12 1.52 1.42 1.16 2.21-1.11 0.39-1.58-0.5-2.35-1.07 0.51-0.36 1.03-0.52 1.19-1.14zm4.01-17.87q-0.62 0.16-1.15 0.29c-0.58-0.25-0.7-0.83-1.06-1.22 0.22-0.34 0.41-0.62 0.6-0.92 1.34-0.13 2.57 0.43 1.61 1.85zm2.13-10.53q0.22 0.11 0.53 0.25-0.01 0.98-0.02 1.97c-1.75 0.22-3.19-1.8-0.51-2.22zm-0.67-5.62c0.46-0.16 0.9 0.01 1.21 0.31q0 0.87 0 1.75c-1.18 0.77-2.35-0.84-1.21-2.06zm-0.56 12.84c0.32-1.45 0.88-1.73 1.68-1.25q-0.01 0.83-0.04 1.67c-0.26 0.13-0.53 0.23-0.78 0.38-0.41-0.16-0.77-0.3-0.86-0.8zm0.4 21.3q-0.09 0.92-0.19 1.83c-0.57-0.38-0.44-1.42 0.19-1.83zm-6.14 6.69c0.67-1.73 2.29-0.96 2.27 0.53-0.49 1.23-2.16 0.57-2.27-0.53zm4.6-3.64c0.11 0.46 0.22 0.87 0.32 1.3-1.96 2.73-3.25-2.96-0.32-1.3zm-2.59-13.99c-0.14 0.77 0.22 2.2-0.96 1.97-2.25-0.94-1.06-2.5 0.96-1.97zm2.2-23.79c-1.37 0.3-1.4-0.97-0.96-1.87 1.76-1.02 2.48 0.65 0.96 1.87zm3.11-10.54q0.03 0.96 0.05 1.96-0.31 0.14-0.82 0.09c-0.89-1.12-0.89-1.12-0.47-2.05q0.57 0 1.24 0zm-2.9 4.94c-2.81-0.98-0.94-3.76 0.99-1.16q-0.5 0.59-0.99 1.16zm1.55 29.21c0.28 0.07 0.67 0 1.03-0.02q-0.05 0.87-0.1 1.74c-0.91-0.09-1.6-0.75-0.93-1.72zm-5.79-4.33c-0.56-0.52 0.45-0.84 0.85-1.15-1.12-1.73 1.88 0.01 1.16 0.89-0.16 1.33-1.25 0.74-2.01 0.26zm-0.12-23.86c0.98-0.79 1.77 0.24 2.46 0.89-1.03 1.21-2.89 1.05-2.46-0.89zm4.54 15.85c-1.33 0.21-2.24-1.59-0.87-2.19 1.75-0.05 1.44 1.03 0.87 2.19zm-2.83 2.47c-1.18 0.82-1.58-0.59-1.74-1.54 1.44-0.32 2.92-0.18 1.74 1.54zm4.47 15.23q0.22 0.03 0.41 0.11-0.07 0.92-0.15 1.83c-0.34-0.27-0.63-0.67-0.87-1.04 0.21-0.38 0.27-0.7 0.61-0.9zm-6.25-28.24c1.05-0.83 1.59 0.3 2.19 1.07-0.05 0.3-0.1 0.64-0.15 0.93-1.3 0.55-1.6-1.21-2.04-2zm0.01 57.69c0.21-0.46 0.36-0.92 0.91-1.08q0.14 0.19 0.34 0.32-0.38 0.9-0.8 1.7-0.07-0.01-0.13-0.01-0.19-0.54-0.32-0.93zm2.07-68.82c0.29 2.02-0.99 2.22-1.96 0.62 0.13-1 1.25-1.13 1.96-0.62zm5.03 28.02q0.08 0.1 0.16 0.2-0.03 0.79-0.06 1.58c-1.25 0.13-1.4 0.02-1.71-0.74 0.71-0.17 0.76-1.19 1.61-1.04zm-4.82 29.82c-0.48 0.52-1.15 0.44-1.77 0.59-0.2-0.35-0.36-0.65-0.58-1.05 0.52-1.43 2-0.66 2.35 0.46zm2.35-43.55c0.25 1.12-0.13 1.85-1.31 1.57-1.75-0.76 0.05-2.01 1.31-1.57zm-1.43 24.2c-0.3-1.41 0.03-2.2 0.95-2.09-0.04 0.19-0.08 0.38-0.09 0.46 0.98 1.24 0.99 2.5-0.86 1.63zm0.94-5.68c-0.32-0.44-0.96-0.34-1.3-0.82 0.11-0.89 1.03-1.19 1.84-0.87-0.04 0.22-0.07 0.4-0.11 0.62 0.2 0.13 0.41 0.27 0.7 0.46-0.32 0.33-0.7 0.83-1.13 0.61zm-2.25 7.15c0.94 1.43-1.77 2.16-1.92 0.46 0.85-0.23 0.97-1.56 1.92-0.46zm-1.42 24.03c-0.37-0.33 0.12-0.94 0.04-1.43q0.67-0.14 1.23-0.26c0.98 1.2-0.26 1.87-1.27 1.69zm0.79-45.26q-0.55-0.56-1.1-1.11c0.3-0.45 0.55-0.84 1.03-0.97 0.63 0.37 0.82 0.96 1.06 1.58-0.36 0.26-0.58 0.35-0.99 0.5zm2.19 36.58c-1.17-1.09 0.12-1.94 1.35-1.37q0.13 0.27 0.11 0.5-0.02 0.11-0.04 0.23c-0.18 0.51-0.85 0.79-1.42 0.64z"/>
			</g>
			<g id="&lt;Group&gt;">
				<path id="&lt;Path&gt;" class="s2" d="m86.37 368.5c-3.22-8.59 47.77-72 64.08-79.94 16.31-7.95 67.31 4.69 67.31 4.69 0 0 12.68-19.23 17.49-20.96 6.79-2.45 45.24 1.47 45.24 1.47 0 0 10.74 34.22 11.7 41.71 0 0 4.74 16.53-9.14 25.27-13.88 8.74-56.67 3.59-69.56-1.01-11.34-4.05-39.74-11.27-39.74-11.27 0 0-44.19 61.49-52.17 63.87 0 0-30.98-12.53-35.21-23.83z"/>
			</g>
			<g id="&lt;Group&gt;">
				<g id="&lt;Group&gt;">
					<path id="&lt;Path&gt;" class="s1" d="m265.86 306.24c-2.43-1.22-5.11-1.99-7.71-2.78-3.98-1.21-8.01-2.29-12.04-3.33-8.67-2.23-17.39-4.26-26.14-6.17-3.29-0.72-6.6-1.43-9.92-2.05-0.77-0.15-0.44-1.33 0.33-1.19 7.11 1.33 14.17 2.96 21.21 4.6 8.71 2.03 17.42 4.13 25.99 6.68 3 0.89 6.1 1.77 8.9 3.18 0.71 0.35 0.09 1.42-0.62 1.06z"/>
				</g>
			</g>
			<g id="&lt;Group&gt;">
				<g id="&lt;Group&gt;">
					<path id="&lt;Path&gt;" class="s1" d="m267.98 275.78c-12.37 0.92-24.57-0.17-36.8-2.05-0.78-0.12-0.45-1.31 0.33-1.19 12.12 1.87 24.21 2.92 36.47 2.01 0.79-0.06 0.79 1.17 0 1.23z"/>
				</g>
			</g>
			<g id="&lt;Group&gt;">
				<g id="&lt;Group&gt;">
					<path id="&lt;Path&gt;" class="s4" d="m242.52 277.31q2.19 2.45 3.46 5.49 0.64 1.52 1 3.14c0.22 0.99 0.46 2.09 0.32 3.1-0.26 1.88-2.28 2.6-3.9 1.87-1.88-0.86-2.53-3.26-2.87-5.11-0.5-2.64-0.38-5.35 0.33-7.93 0.21-0.76 1.4-0.44 1.19 0.33q-0.78 2.83-0.54 5.76c0.14 1.67 0.45 3.79 1.55 5.13 0.96 1.17 3.07 1.26 3.05-0.64-0.02-1.73-0.6-3.55-1.24-5.14-0.77-1.88-1.87-3.62-3.22-5.13-0.53-0.59 0.34-1.47 0.87-0.87z"/>
				</g>
			</g>
			<g id="&lt;Group&gt;">
				<g id="&lt;Group&gt;">
					<path id="&lt;Path&gt;" class="s4" d="m242.19 278.2c-1.56 2.09-3.14 4.21-5.21 5.83-1.75 1.37-4.05 2.62-6.35 2.48-2.09-0.13-3.79-1.73-3.03-3.92 0.38-1.12 1.29-1.91 2.22-2.57q1.55-1.09 3.29-1.83c2.62-1.14 5.46-1.7 8.32-1.62 0.79 0.02 0.8 1.25 0 1.23q-3.14-0.09-6.14 0.87c-1.94 0.62-3.98 1.58-5.52 2.94-0.72 0.64-1.45 1.69-0.99 2.68 0.35 0.75 1.27 0.98 2.03 1 1.94 0.05 3.91-1.03 5.39-2.2 1.95-1.53 3.45-3.54 4.92-5.51 0.47-0.63 1.54-0.02 1.07 0.62z"/>
				</g>
			</g>
			<g id="&lt;Group&gt;">
				<g id="&lt;Group&gt;">
					<path id="&lt;Path&gt;" class="s1" d="m235.98 344.28c-9.9-0.08-20.13-2.76-29.73-5.01-10.34-2.43-20.7-5.18-30.68-8.81-0.88-0.31-0.53-1.67 0.39-1.41 9.94 2.82 19.81 5.8 29.87 8.21 9.96 2.38 20.43 3.66 30.19 6.72 0.16 0.05 0.14 0.3-0.04 0.3z"/>
				</g>
			</g>
			<g id="&lt;Group&gt;">
				<g id="&lt;Group&gt;">
					<path id="&lt;Path&gt;" class="s1" d="m174.62 330.02c0.35-5.3 2.16-10.77 3.69-15.83 0.25-0.83 1.46-0.48 1.3 0.36-1.03 5.18-2.01 10.85-4.19 15.68-0.17 0.39-0.83 0.2-0.8-0.21z"/>
				</g>
			</g>
			<g id="&lt;Group&gt;">
				<g id="&lt;Group&gt;">
					<path id="&lt;Path&gt;" class="s1" d="m171.35 318.08c1.06 4.01 2.31 7.92 4.33 11.56 0.46 0.83-0.82 1.58-1.26 0.75-2.04-3.79-3.09-7.88-3.96-12.07-0.12-0.58 0.74-0.83 0.89-0.24z"/>
				</g>
			</g>
			<g id="&lt;Group&gt;">
				<g id="&lt;Group&gt;">
					<path id="&lt;Path&gt;" class="s1" d="m175.6 330.08c-3.89 3.64-7.07 8.08-10.34 12.24-5.12 6.51-10.17 13.09-15.25 19.63-4.97 6.4-9.99 12.76-15.13 19.03-3.42 4.18-6.85 8.73-11.04 12.18-0.59 0.49-1.43-0.35-0.84-0.84 4.06-3.37 7.38-7.77 10.7-11.84 5.23-6.41 10.24-13 15.3-19.55 8.16-10.55 16.01-22.48 25.94-31.5 0.44-0.4 1.1 0.24 0.66 0.65z"/>
				</g>
			</g>
			<g id="&lt;Group&gt;">
				<path id="&lt;Path&gt;" class="s2" d="m70.04 376.47c0 0 7.04 10.72-0.84 23.96l-3.35 4.83c0 0 19.61 14.28 18.1 16.12-1.51 1.84-1.84 3.18-4.53 2.18-2.68-1.01-35.02-27.32-42.9-34.36-7.88-7.04-4.19-16.42 0-18.93 4.19-2.52 30 3.85 33.52 6.2z"/>
			</g>
			<g id="&lt;Group&gt;">
				<path id="&lt;Path&gt;" class="s2" d="m133.71 451.92c0 0 12.93 2.07 17.83 17.01l1.47 5.81c0 0 24.03-4.89 24.44-2.51 0.4 2.39 1.21 3.56-1.35 4.88-2.56 1.32-44.31 7.5-54.96 8.58-10.65 1.07-15.39-8.1-14.53-12.95 0.87-4.86 22.96-19.8 27.1-20.82z"/>
			</g>
			<g id="&lt;Group&gt;">
				<g id="&lt;Group&gt;">
					<path id="&lt;Path&gt;" class="s1" d="m65.9 405.56q-10.48-7.4-20.39-15.55c-5.18-4.26-11.52-8.98-12.3-16.17-0.08-0.79 1.15-0.79 1.24 0 0.76 7.03 7.62 11.78 12.66 15.9q9.44 7.72 19.41 14.75c0.65 0.46 0.03 1.52-0.62 1.07z"/>
				</g>
			</g>
			<g id="&lt;Group&gt;">
				<g id="&lt;Group&gt;">
					<path id="&lt;Path&gt;" class="s1" d="m175.16 472.49c-17.44 3.21-34.9 6.51-52.49 8.8-4.74 0.62-9.56 0.95-14.23-0.3-0.77-0.21-0.44-1.4 0.33-1.19 4.17 1.12 8.49 0.91 12.74 0.4 4.4-0.52 8.79-1.21 13.17-1.89 8.55-1.33 17.08-2.81 25.59-4.35q7.29-1.31 14.56-2.66c0.78-0.14 1.11 1.05 0.33 1.19z"/>
				</g>
			</g>
			<g id="&lt;Group&gt;">
				<g id="&lt;Group&gt;">
					<path id="&lt;Path&gt;" class="s1" d="m280.8 198.6c1.91-12.13 1.72-21.32 2.38-33.59l6.02-12.79c14.5-4.73 20.62 8.69 21.28 17.21 0.28 3.6-0.54 7.27 0.26 10.78 0.8 3.54 3.14 6.5 5.41 9.34 2.26 2.83 4.58 5.82 5.32 9.37 0.75 3.55-0.61 7.83-3.97 9.21 2.78 1.38 4.14 4.84 3.62 7.89-0.52 3.06-2.62 5.67-5.18 7.43-2.55 1.75-5.54 2.75-8.53 3.61-2.42 0.69-4.9 1.3-7.42 1.21-2.52-0.09-5.1-0.97-6.77-2.86-1.7-1.91-9.18-6.42-9.67-8.93-1.09-5.6-3.98-10.06-2.75-17.88z"/>
				</g>
				<g id="&lt;Group&gt;">
					<path id="&lt;Path&gt;" class="s2" d="m284.23 152.87c0.39-1.55 1.93-2.66 3.52-2.79 1.6-0.13 3.18 0.61 4.32 1.74 1.15 1.12 1.89 2.59 2.4 4.11 0.94 2.74 1.19 5.72 0.73 8.58-0.17 1.05-0.53 2.21-1.48 2.67-0.7 0.34-6.15 1.04-6.9 0.83-2.48-0.7-0.12-2.98-1.81-4.93"/>
				</g>
				<g id="&lt;Group&gt;">
					<g id="&lt;Group&gt;">
						<g id="&lt;Group&gt;">
							<path id="&lt;Path&gt;" class="s2" d="m242.95 202.8c0 0-10.54 2.58-13.06 9.34-2.53 6.75-13.44 26.69-9.93 29.45 3.51 2.76 19.65 2.63 19.65 2.63z"/>
						</g>
					</g>
					<g id="&lt;Group&gt;">
						<g id="&lt;Group&gt;">
							<path id="&lt;Path&gt;" class="s2" d="m230.45 233.61c0.25-6.34 7.44-15.98 7.44-15.98 0 0 1.87-13.41 5.06-14.83 3.2-1.41 10.05-2.52 11.79-2.01l28.14 0.88 11.39 2.98c7.21 3.24 6.09 28.18 3.13 35.3 0 0-4.04 31.25-7.76 32.63-6.41 2.37-58.39 1.93-59.19 0.67-0.8-1.27 3.03-27.02 3.03-27.02 0 0-3.22-7.61-3.03-12.62z"/>
						</g>
					</g>
					<g id="&lt;Group&gt;">
						<g id="&lt;Group&gt;">
							<g id="&lt;Group&gt;">
								<path id="&lt;Path&gt;" class="s1" d="m241.17 217.68c-4.92 2.9-8.44 7.9-9.43 13.54-1.06 6.04 1.04 12.4 5.27 16.79 0.52 0.55-0.31 1.38-0.83 0.83-4.46-4.63-6.62-11.22-5.62-17.59 0.94-6.06 4.76-11.48 10.02-14.58 0.65-0.38 1.24 0.63 0.59 1.01z"/>
							</g>
						</g>
					</g>
					<g id="&lt;Group&gt;">
						<g id="&lt;Group&gt;">
							<g id="&lt;Group&gt;">
								<path id="&lt;Path&gt;" class="s1" d="m238.81 218.17c-0.65-1.38-0.99-2.89-0.94-4.42 0.01-0.31 0.26-0.58 0.58-0.58 0.31 0 0.6 0.27 0.59 0.58-0.04 1.33 0.21 2.63 0.78 3.83 0.14 0.29 0.08 0.63-0.2 0.8-0.26 0.15-0.67 0.08-0.81-0.21z"/>
							</g>
						</g>
					</g>
				</g>
				<g id="&lt;Group&gt;">
					<g id="&lt;Group&gt;">
						<g id="&lt;Group&gt;">
							<g id="&lt;Group&gt;">
								<g id="&lt;Group&gt;">
									<path id="&lt;Path&gt;" class="s3" d="m255.83 256.62c0.69 1.93 3.04 3.09 6.96-6.68 0 0 5.24-15.83 4.01-23.3-1.24-7.46-13.03-16.35-14.76-14.99-1.73 1.35-2.05 1.85-0.63 3.67 1.42 1.82 5.46 3.54 5.95 4.81 0.49 1.27 0.49 1.27 0.49 1.27 0 0-7.44-2.15-7.84 3.38 0 0-1.76 1.11-1.33 3.63 0 0-2.1 1.21-1.52 4.7 0.58 3.49 3.79 3.65 3.79 3.65 0 0-1.12 2.48-2.11 5.55-0.85 2.64-0.85 5.51 0.26 8.05 0.36 0.82 0.84 1.62 1.48 2.29 1.74 1.8 5.25 3.97 5.25 3.97z"/>
								</g>
							</g>
							<g id="&lt;Group&gt;">
								<g id="&lt;Group&gt;">
									<g id="&lt;Group&gt;">
										<path id="&lt;Path&gt;" class="s1" d="m259.55 234.57c-1.13-2.04-2.8-3.71-4.8-4.9q-1.48-0.88-3.14-1.34c-1.06-0.29-2.22-0.46-3.24 0.04-0.67 0.33-0.28 1.43 0.39 1.1 0.9-0.44 1.9-0.21 2.82 0.06 1 0.3 1.96 0.75 2.85 1.3 1.74 1.09 3.17 2.62 4.17 4.42 0.36 0.65 1.31-0.03 0.95-0.68z"/>
									</g>
								</g>
							</g>
							<g id="&lt;Group&gt;">
								<g id="&lt;Group&gt;">
									<g id="&lt;Group&gt;">
										<path id="&lt;Path&gt;" class="s1" d="m249.66 225.53c5.01-1.02 10.07 1.63 11.99 6.4 0.28 0.7 1.38 0.31 1.1-0.39-2.1-5.22-7.66-8.3-13.19-7.18-0.73 0.15-0.64 1.32 0.1 1.17z"/>
									</g>
								</g>
							</g>
							<g id="&lt;Group&gt;">
								<g id="&lt;Group&gt;">
									<g id="&lt;Group&gt;">
										<path id="&lt;Path&gt;" class="s1" d="m257.04 221.94c2.75 0.99 5.01 3.09 6.14 5.8 0.29 0.69 1.39 0.3 1.1-0.4-1.25-2.98-3.71-5.37-6.75-6.47-0.71-0.25-1.2 0.81-0.49 1.07z"/>
									</g>
								</g>
							</g>
							<g id="&lt;Group&gt;">
								<g id="&lt;Group&gt;">
									<g id="&lt;Group&gt;">
										<path id="&lt;Path&gt;" class="s1" d="m251.2 237.35q1.15-1.67 1.79-3.6c0.09-0.29 0.02-0.65-0.29-0.77-0.27-0.11-0.68-0.02-0.78 0.29q-0.29 0.91-0.71 1.77-0.21 0.42-0.45 0.83-0.06 0.1-0.12 0.21-0.03 0.05-0.06 0.1 0.04-0.06-0.02 0.03-0.13 0.2-0.27 0.4c-0.17 0.25-0.18 0.62 0.09 0.83 0.23 0.17 0.63 0.18 0.82-0.09z"/>
									</g>
								</g>
							</g>
						</g>
						<g id="&lt;Group&gt;">
							<g id="&lt;Group&gt;">
								<g id="&lt;Group&gt;">
									<path id="&lt;Path&gt;" class="s1" d="m250.54 213.04c0.23 0.43 0.52 0.8 0.94 1.07q0.67 0.43 1.46 0.44c1.01 0.02 1.96-0.64 2.38-1.53 0.13-0.28 0-0.66-0.29-0.77-0.3-0.12-0.63-0.01-0.77 0.29q-0.03 0.06-0.07 0.12c-0.07 0.14 0.07-0.09-0.01 0.03q-0.08 0.11-0.16 0.2-0.04 0.05-0.08 0.09c-0.1 0.1 0.07-0.06-0.03 0.02q-0.11 0.09-0.22 0.17-0.05 0.03-0.11 0.06-0.05 0.03 0.04-0.02-0.03 0.01-0.06 0.03-0.12 0.05-0.24 0.09-0.07 0.02-0.14 0.04c0.1-0.03 0.02-0.01-0.04 0q-0.12 0.02-0.25 0.02-0.11-0.01-0.01 0-0.07-0.01-0.13-0.02-0.13-0.02-0.25-0.05-0.06-0.01 0.04 0.01-0.03-0.01-0.06-0.02-0.06-0.02-0.11-0.04c-0.04-0.02-0.22-0.08-0.24-0.12q0.03 0.01 0.05 0.03-0.04-0.02-0.07-0.05-0.05-0.03-0.09-0.07-0.1-0.08-0.19-0.16c-0.11-0.1 0.08 0.1-0.01-0.02q-0.05-0.05-0.09-0.11-0.04-0.05-0.07-0.11c-0.02-0.03-0.09-0.15-0.02-0.02-0.07-0.14-0.15-0.26-0.31-0.33-0.12-0.06-0.3-0.07-0.44-0.02-0.26 0.11-0.5 0.46-0.35 0.75z"/>
								</g>
							</g>
						</g>
					</g>
					<g id="&lt;Group&gt;">
						<path id="&lt;Path&gt;" class="s3" d="m285.2 252.25l-0.71 11.21-25.38-21.58c0 0-4.7 10.61-3.28 14.74 0.98 2.84 3.55 7.89 21.02 29.28 3.61 4.42 10.38 13.42 17.74 9.38 7.38-4.06 11.38-41.23 11.85-46.26z"/>
					</g>
					<g id="&lt;Group&gt;">
						<g id="&lt;Group&gt;">
							<path id="&lt;Path&gt;" class="s1" d="m281.51 261.94c4.1 2.96 7.63 6.68 10.38 10.93 0.4 0.62 1.38 0.04 0.98-0.57-2.85-4.43-6.52-8.27-10.78-11.35-0.6-0.43-1.17 0.56-0.58 0.99z"/>
						</g>
					</g>
					<g id="&lt;Group&gt;">
						<g id="&lt;Group&gt;">
							<path id="&lt;Path&gt;" class="s1" d="m263.04 251.34q1.14-2.72 2.27-5.43c0.12-0.28-0.12-0.62-0.39-0.7-0.33-0.09-0.58 0.11-0.7 0.4q-1.14 2.71-2.28 5.42c-0.12 0.29 0.13 0.63 0.39 0.7 0.33 0.1 0.59-0.11 0.71-0.39z"/>
						</g>
					</g>
				</g>
				<g id="&lt;Group&gt;">
					<g id="&lt;Group&gt;">
						<path id="&lt;Path&gt;" class="s2" d="m294.27 204.65c0 0 7.6 1.6 12.82 8.3 5.22 6.7 5.9 35.41 2.57 39.08-5.49 6.04-26.02 0.46-27.36-1.06-1.34-1.51 11.97-46.32 11.97-46.32z"/>
					</g>
				</g>
				<g id="&lt;Group&gt;">
					<g id="&lt;Group&gt;">
						<g id="&lt;Group&gt;">
							<path id="&lt;Path&gt;" class="s1" d="m208.34 225.07c0 0 9.43 31.15 13.54 33.15 4.11 1.99 18.88 0.84 19.08-1.43 0.2-2.27-9.25-32.76-11.96-33.74-2.71-0.97-21.83-1.87-20.66 2.02z"/>
						</g>
					</g>
					<g id="&lt;Group&gt;">
						<g id="&lt;Group&gt;">
							<path id="&lt;Path&gt;" class="s3" d="m213.46 234.48c0 0 2.06-2.09 0.59-3.81-1.47-1.71-4.68-0.94-6.24 3.35-1.55 4.3-2.18 8.03 2.19 10.03 0 0-0.57 1.74 1.79 3.61 0 0-0.62 2.53 1.67 4.73 0 0 0.57 4.39 3.15 5.53 2.59 1.14 7.85 0.03 7.51-1.94-0.33-1.96-5.47-3.02-5.47-3.02 0 0 4.11-0.5 4.74-2.19 0.63-1.69-1.81-3.69-1.81-3.69 0 0 1.49-1.1 0.87-2.97-0.61-1.88-2.92-2.72-6.12-2.69-3.19 0.04-5.69 0.82-5.69 0.82 0 0 1.12-6.89 2.82-7.76z"/>
						</g>
					</g>
					<g id="&lt;Group&gt;">
						<g id="&lt;Group&gt;">
							<g id="&lt;Group&gt;">
								<path id="&lt;Path&gt;" class="s1" d="m210.2 243.36c2.4-1.31 5.1-1.95 7.83-1.87 0.6 0.02 0.6-0.91 0-0.93-2.89-0.09-5.76 0.6-8.3 1.99-0.53 0.29-0.05 1.1 0.47 0.81z"/>
							</g>
						</g>
					</g>
					<g id="&lt;Group&gt;">
						<g id="&lt;Group&gt;">
							<g id="&lt;Group&gt;">
								<path id="&lt;Path&gt;" class="s1" d="m211.97 248.24q4.86-0.95 9.81-0.92c0.6 0 0.6-0.93 0-0.94q-5.08-0.02-10.06 0.96c-0.59 0.12-0.34 1.02 0.25 0.9z"/>
							</g>
						</g>
					</g>
					<g id="&lt;Group&gt;">
						<g id="&lt;Group&gt;">
							<g id="&lt;Group&gt;">
								<path id="&lt;Path&gt;" class="s1" d="m213.82 252.89c2.57 0.72 5.28 0.76 7.87 0.14 0.58-0.14 0.34-1.04-0.25-0.9-2.43 0.58-4.96 0.53-7.37-0.14-0.58-0.16-0.83 0.74-0.25 0.9z"/>
							</g>
						</g>
					</g>
					<g id="&lt;Group&gt;">
						<g id="&lt;Group&gt;">
							<g id="&lt;Group&gt;">
								<path id="&lt;Path&gt;" class="s1" d="m211.85 242.3c-0.02-2.39 0.65-4.72 1.91-6.74 0.32-0.51-0.49-0.98-0.81-0.47-1.34 2.15-2.05 4.67-2.03 7.21 0 0.6 0.94 0.6 0.93 0z"/>
							</g>
						</g>
					</g>
					<g id="&lt;Group&gt;">
						<g id="&lt;Group&gt;">
							<g id="&lt;Group&gt;">
								<path id="&lt;Path&gt;" class="s1" d="m209.59 231.96c0.84 0.46 1.84 0.5 2.71 0.1 0.77-0.36 1.34-1.08 1.57-1.88 0.16-0.58-0.74-0.83-0.9-0.25-0.16 0.56-0.54 1.03-1.09 1.3-0.55 0.27-1.26 0.23-1.81-0.08-0.53-0.28-1 0.52-0.48 0.81z"/>
							</g>
						</g>
					</g>
					<g id="&lt;Group&gt;">
						<g id="&lt;Group&gt;">
							<g id="&lt;Group&gt;">
								<path id="&lt;Path&gt;" class="s1" d="m217.38 241.76c0.21 1.07 0.94 2.05 1.93 2.53 1.1 0.54 2.43 0.47 3.48-0.16 0.51-0.31 0.04-1.12-0.48-0.81-0.77 0.47-1.78 0.55-2.59 0.13-0.76-0.39-1.28-1.11-1.43-1.94-0.05-0.25-0.35-0.39-0.58-0.33-0.26 0.07-0.37 0.33-0.33 0.58z"/>
							</g>
						</g>
					</g>
					<g id="&lt;Group&gt;">
						<g id="&lt;Group&gt;">
							<g id="&lt;Group&gt;">
								<path id="&lt;Path&gt;" class="s1" d="m219.26 246.93c0.12 2.01 1.94 3.73 3.96 3.65 0.25-0.01 0.47-0.21 0.47-0.47 0-0.24-0.21-0.47-0.47-0.46-0.75 0.02-1.48-0.27-2.04-0.77-0.31-0.29-0.5-0.53-0.69-0.91-0.1-0.18-0.14-0.27-0.2-0.49q-0.04-0.14-0.06-0.28c-0.01-0.01-0.03-0.15-0.02-0.07q-0.01-0.1-0.01-0.2c-0.02-0.25-0.21-0.46-0.47-0.46-0.24 0-0.48 0.21-0.47 0.46z"/>
							</g>
						</g>
					</g>
					<g id="&lt;Group&gt;">
						<g id="&lt;Group&gt;">
							<g id="&lt;Group&gt;">
								<path id="&lt;Path&gt;" class="s1" d="m220.88 254.55c-0.17 1.59 1.31 3.12 2.89 3.04 0.25-0.02 0.48-0.21 0.47-0.47-0.01-0.24-0.21-0.48-0.47-0.47q-0.12 0.01-0.25 0c-0.01 0-0.11-0.01-0.11-0.01q0.1 0.01 0.02 0-0.02 0-0.03-0.01-0.13-0.02-0.24-0.06-0.06-0.01-0.11-0.03c-0.04-0.02-0.09-0.04-0.02-0.01q-0.21-0.09-0.4-0.23-0.03-0.02-0.06-0.04 0.07 0.06 0.01 0.01-0.04-0.04-0.08-0.07-0.09-0.08-0.17-0.16-0.08-0.09-0.15-0.18c0.07 0.09-0.01-0.01-0.02-0.02q-0.03-0.05-0.07-0.11-0.06-0.1-0.11-0.2-0.02-0.05-0.05-0.1c0.05 0.11 0-0.01-0.01-0.04q-0.04-0.1-0.07-0.22-0.01-0.05-0.02-0.1c-0.01-0.01-0.03-0.15-0.02-0.08 0.01 0.08 0-0.07 0-0.08q-0.01-0.05-0.01-0.11 0-0.12 0.01-0.25c0.03-0.24-0.23-0.47-0.46-0.46-0.28 0.01-0.44 0.2-0.47 0.46z"/>
							</g>
						</g>
					</g>
					<g id="&lt;Group&gt;">
						<g id="&lt;Group&gt;">
							<path id="&lt;Path&gt;" class="s4" d="m222.29 231.43c0.75 1.14 0.62 2.55-0.29 3.15-0.91 0.61-2.26 0.18-3.01-0.95-0.76-1.13-0.63-2.54 0.28-3.15 0.91-0.6 2.26-0.18 3.02 0.95z"/>
						</g>
					</g>
				</g>
				<g id="&lt;Group&gt;">
					<path id="&lt;Path&gt;" class="s3" d="m282.77 201.67c0.46 0.12-7.39 9.28-22.26 7.11-12.08-1.76-7.86-8.13-7.86-8.13 0 0 16.02-2.75 30.12 1.02z"/>
				</g>
				<g id="&lt;Group&gt;">
					<g id="&lt;Group&gt;">
						<path id="&lt;Path&gt;" class="s1" d="m306.6 219.71q-9.77 3.6-18.83 8.73c-0.69 0.39-1.32-0.67-0.63-1.06 6.13-3.47 12.53-6.43 19.14-8.86 0.74-0.27 1.06 0.92 0.32 1.19z"/>
					</g>
				</g>
				<g id="&lt;Group&gt;">
					<g id="&lt;Group&gt;">
						<path id="&lt;Path&gt;" class="s1" d="m306.62 254.72c-6.43 1.1-13.27 0.87-19.48-1.28-1.41-0.49-3.19-1.07-4.27-2.16-0.54-0.54-0.63-1.32-0.71-2.06-0.15-1.51-0.01-3.05 0.14-4.56q0.71-7.45 1.43-14.9c0.08-0.79 1.31-0.79 1.24 0q-0.76 7.68-1.49 15.38c-0.13 1.43-0.52 3.59 0.08 4.96 0.22 0.51 0.86 0.81 1.38 1.09 2.43 1.28 5.23 1.96 7.93 2.41 4.43 0.75 8.99 0.69 13.43-0.07 0.77-0.13 1.1 1.06 0.32 1.19z"/>
					</g>
				</g>
			</g>
			<g id="&lt;Group&gt;">
				<g id="&lt;Group&gt;">
					<path id="&lt;Path&gt;" class="s1" d="m342.45 296.08c0 0 24.14 143.75 22.97 146.77-1.86 4.8-20.91 4.86-21.17 2.1l-22.62-144.37h-54.13c0 0-20.23 161.7-20.76 162.88-1.29 2.91-21.74 1.91-21.51 0l19.71-167.38z"/>
				</g>
				<g id="&lt;Group&gt;">
					<g id="&lt;Group&gt;">
						<path id="&lt;Path&gt;" class="s2" d="m358.56 444.65q-1.02-7.17-2.04-14.33-2.45-17.21-4.9-34.41-2.94-20.68-5.88-41.36-2.56-17.98-5.12-35.97-0.84-5.92-1.69-11.84-0.26-1.85-0.52-3.7c-0.09-0.58-0.34-1.33-0.28-1.91 0.01-0.07-0.02-0.17-0.03-0.24q0.3 0.23 0.59 0.45-11.92 0-23.85 0-19.04 0-38.07 0-4.39 0-8.79 0c-0.79 0-0.79-1.23 0-1.23q11.93 0 23.86 0 19.03 0 38.06 0 4.4 0 8.79 0c0.25 0 0.56 0.19 0.6 0.45q1.02 7.17 2.04 14.33 2.45 17.21 4.89 34.41 2.95 20.68 5.89 41.36 2.56 17.98 5.12 35.97c0.83 5.8 1.87 11.62 2.49 17.45q0.01 0.12 0.03 0.24c0.11 0.78-1.08 1.11-1.19 0.33z"/>
					</g>
				</g>
				<g id="&lt;Group&gt;">
					<path id="&lt;Path&gt;" class="s2" d="m240.59 465.27l21.86-169.93-0.98-0.12-21.85 169.92z"/>
				</g>
			</g>
			<g id="&lt;Group&gt;">
				<g id="&lt;Group&gt;">
					<path id="&lt;Path&gt;" class="s1" d="m222.71 258.28c-2.26 1.4-5.18 2.03-7.59 0.6-2.11-1.25-3.11-4.11-1.67-6.25q0.18 0.46 0.36 0.91c-2.55-0.75-3.99-3.5-3.04-6.02 0.28-0.73 1.47-0.41 1.19 0.33-0.72 1.89 0.22 3.93 2.18 4.5 0.36 0.11 0.6 0.57 0.37 0.9-1.16 1.73-0.2 3.87 1.54 4.74 1.98 0.99 4.26 0.33 6.04-0.78 0.67-0.42 1.29 0.65 0.62 1.07z"/>
				</g>
			</g>
			<g id="&lt;Group&gt;">
				<g id="&lt;Group&gt;">
					<g id="&lt;Group&gt;">
						<path id="&lt;Path&gt;" class="s1" d="m233.5 155.27c2.01-3.81 5.34-6.82 9.11-8.91 4.01-2.22 8.56-3.46 13.15-3.56l4.26 45.17-17.63-9.18c-1.94-3.94-8.81-7.7-10.02-11.03-1.46-4.05-0.88-8.68 1.13-12.49z"/>
					</g>
				</g>
				<g id="&lt;Group&gt;">
					<g id="&lt;Group&gt;">
						<path id="&lt;Path&gt;" class="s3" d="m272.42 150.67c-9.38-10.26-26.71-6.68-31.29 6.44-1.45 4.15-1.66 9.45-0.68 16.38 2.75 19.32 19.14 17.35 19.14 17.35l2.98 12.36 15.99-1.77-1.4-21.84c0 0 0.52-14.69-1.8-23.67-0.51-2-1.57-3.75-2.94-5.25z"/>
					</g>
				</g>
				<g id="&lt;Group&gt;">
					<g id="&lt;Group&gt;">
						<path id="&lt;Path&gt;" class="s1" d="m248.66 161.68c0.65 0 1.17 0.58 1.17 1.3 0 0.71-0.52 1.29-1.17 1.29-0.65 0-1.17-0.58-1.17-1.29 0-0.72 0.52-1.3 1.17-1.3z"/>
					</g>
				</g>
				<g id="&lt;Group&gt;">
					<g id="&lt;Group&gt;">
						<path id="&lt;Path&gt;" class="s1" d="m261.18 160.01c0.65 0 1.17 0.58 1.17 1.3 0 0.71-0.52 1.29-1.17 1.29-0.64 0-1.16-0.58-1.16-1.29 0-0.72 0.52-1.3 1.16-1.3z"/>
					</g>
				</g>
				<g id="&lt;Group&gt;">
					<g id="&lt;Group&gt;">
						<g id="&lt;Group&gt;">
							<path id="&lt;Path&gt;" class="s1" d="m265.9 153.37c-2.69-1.26-5.25-0.64-7.95 0.01-0.62 0.15-1.2-0.63-0.58-1.06 2.66-1.86 6.24-1.06 8.8 0.44 0.37 0.22 0.13 0.8-0.27 0.61z"/>
						</g>
					</g>
				</g>
				<g id="&lt;Group&gt;">
					<g id="&lt;Group&gt;">
						<g id="&lt;Group&gt;">
							<path id="&lt;Path&gt;" class="s1" d="m268.17 187.13c-2.85 2.82-6.7 4.32-10.71 4.44-0.68 0.02-0.8-0.99-0.11-1.06 3.89-0.4 7.34-1.6 10.77-3.46 0.04-0.03 0.09 0.04 0.05 0.08z"/>
						</g>
					</g>
				</g>
				<g id="&lt;Group&gt;">
					<g id="&lt;Group&gt;">
						<path id="&lt;Path&gt;" class="s1" d="m286.33 154.87c3.85 7.9 2.35 16.63-3.21 23.44l-4.94 6.04c-1.26-5.74-3.93-20.17-5.46-25.58-1.52-5.41-12.79-11.47-17.33-13.72l-0.26-2.57c5.11-2.39 11.64-1.95 16.9 0.09 2.97 1.16 6.1 2.83 8.39 5.04 0 0 4.25 3.86 5.91 7.26z"/>
					</g>
				</g>
				<g id="&lt;Group&gt;" style="opacity: .3">
					<g id="&lt;Group&gt;">
						<path id="&lt;Path&gt;" class="s1" d="m265.29 163.39c2.05 0 3.7 0.87 3.7 1.95 0 1.07-1.65 1.94-3.7 1.94-2.04 0-3.69-0.87-3.69-1.94 0-1.08 1.65-1.95 3.69-1.95z"/>
					</g>
				</g>
				<g id="&lt;Group&gt;" style="opacity: .3">
					<g id="&lt;Group&gt;">
						<path id="&lt;Path&gt;" class="s1" d="m244.97 165.45c2.04 0 3.69 0.87 3.69 1.95 0 1.07-1.65 1.94-3.69 1.94-2.05 0-3.7-0.87-3.7-1.94 0-1.08 1.65-1.95 3.7-1.95z"/>
					</g>
				</g>
				<g id="&lt;Group&gt;">
					<g id="&lt;Group&gt;">
						<g id="&lt;Group&gt;">
							<path id="&lt;Path&gt;" class="s1" d="m254.6 143.58c-2.02-1.3-3.8-2.75-6.26-3.14-2.43-0.39-4.58 0.27-6.83 1.12-0.43 0.16-0.77-0.44-0.39-0.71 3.99-2.83 11.25-2 13.6 2.64 0.04 0.08-0.06 0.12-0.12 0.09z"/>
						</g>
					</g>
				</g>
				<g id="&lt;Group&gt;">
					<g id="&lt;Group&gt;">
						<g id="&lt;Group&gt;">
							<path id="&lt;Path&gt;" class="s1" d="m245.14 136.05c5.43-0.4 9.94 2.88 11.44 8.12 0.2 0.67-0.82 1.06-1.01 0.39-1.35-4.74-5.52-7.97-10.43-8.29-0.13-0.01-0.12-0.21 0-0.22z"/>
						</g>
					</g>
				</g>
				<g id="&lt;Group&gt;">
					<g id="&lt;Group&gt;">
						<path id="&lt;Path&gt;" class="s3" d="m281.11 164.03c1.03-0.65 2.43-0.55 3.48 0.08 1.06 0.63 1.78 1.71 2.19 2.86 0.69 1.92 0.53 4.19-0.69 5.82-1.21 1.63-3.56 2.43-5.42 1.6z"/>
					</g>
				</g>
				<g id="&lt;Group&gt;">
					<g id="&lt;Group&gt;">
						<g id="&lt;Group&gt;">
							<path id="&lt;Path&gt;" class="s1" d="m284.09 169.35c-0.4-0.22-1.23-0.29-1.67-0.23-0.62 0.09-0.99 0.45-1.38 0.91-0.39 0.48-1.22 0-0.93-0.58 0.38-0.79 1.23-1.33 2.1-1.4 0.42-0.03 0.89 0.04 1.26 0.24 0.42 0.23 0.51 0.54 0.74 0.91 0.05 0.08-0.03 0.21-0.12 0.15z"/>
						</g>
					</g>
				</g>
				<g id="&lt;Group&gt;">
					<g id="&lt;Group&gt;">
						<g id="&lt;Group&gt;">
							<path id="&lt;Path&gt;" class="s1" d="m245.16 154.51c1.93-2.56 5.66-2.56 7.51 0.02 2.64 3.67 1.38 10.09-0.57 13.78-0.39 0.74-1.44 0.25-1.16-0.53 1.04-2.9 2.04-5.89 1.79-9.03-0.33-4.11-3.68-6.3-7.22-3.87-0.24 0.16-0.53-0.14-0.35-0.37z"/>
						</g>
					</g>
				</g>
			</g>
			<g id="&lt;Group&gt;">
				<g id="&lt;Group&gt;">
					<g id="&lt;Group&gt;">
						<path id="&lt;Path&gt;" class="s1" d="m259.11 170c0.38 1.27-0.68 2.71-1.61 3.47-1.15 0.94-2.67 1.46-4.12 0.97-0.37-0.13-0.42-0.7-0.05-0.87 1.05-0.49 2.17-0.85 3.06-1.62 0.75-0.65 1.15-1.63 1.93-2.22 0.31-0.23 0.68-0.09 0.79 0.27z"/>
					</g>
				</g>
			</g>
		</g>
	</g>
</svg>